<?xml version="1.0" standalone="no"?>
<!DOCTYPE svg PUBLIC "-//W3C//DTD SVG 1.1//EN" "http://www.w3.org/Graphics/SVG/1.1/DTD/svg11.dtd" >
<svg xmlns="http://www.w3.org/2000/svg">
<metadata>Generated by IcoMoon</metadata>
<defs>
<font id="icomoon" horiz-adv-x="1024">
<font-face units-per-em="1024" ascent="960" descent="-64" />
<missing-glyph horiz-adv-x="1024" />
<glyph unicode="&#x20;" horiz-adv-x="512" d="" />
<glyph unicode="&#xe500;" glyph-name="clock" d="M512 937.323c-270.251 0-489.323-219.072-489.323-489.323 0-270.272 219.072-489.344 489.344-489.344s489.344 219.072 489.344 489.344c-0.021 270.251-219.093 489.323-489.365 489.323zM512 81.003c-202.667 0-366.997 164.331-366.997 366.997s164.331 366.997 366.997 366.997c202.667 0 366.997-164.331 366.997-366.997s-164.331-366.997-366.997-366.997zM544 456v208c0 0-8 40-48 40s-47.893-40-47.893-40v-245.995l175.893-178.005c0 0 40-32 72 0s0 64 0 64l-152 152z" />
<glyph unicode="&#xe501;" glyph-name="calendar" d="M869.867 925.504v-65.067h-130.155v65.067h-455.467v-65.067h-130.112v65.067h-130.133v-855.936c0.661-75.733 67.861-99.051 92.544-99.051h790.912c24.64 0 92.544 26.112 92.544 94.933v860.053h-130.133zM931.456 104.661c0-36.352-29.461-65.813-65.792-65.813h-707.328c-36.352 0-65.792 29.461-65.792 65.813v546.944c0 36.331 29.44 65.792 65.792 65.792h707.328c36.331 0 65.792-29.461 65.792-65.792v-546.944zM544.533 632.171h130.133v-130.133h-130.133v130.133zM544.533 436.928h130.133v-130.133h-130.133v130.133zM739.733 436.928h130.155v-130.133h-130.155v130.133zM544.533 241.771h130.133v-130.176h-130.133v130.176zM739.733 632.171h130.155v-130.133h-130.155v130.133zM349.333 436.928h130.112v-130.133h-130.112v130.133zM154.133 241.771h130.155v-130.176h-130.155v130.176zM154.133 436.928h130.155v-130.133h-130.155v130.133zM349.333 632.171h130.112v-130.133h-130.112v130.133zM349.333 241.771h130.112v-130.176h-130.112v130.176z" />
<glyph unicode="&#xe502;" glyph-name="dangan" d="M888.363 950.955h-752.725c-23.317 0-42.219-18.901-42.219-42.219v-492.736c21.12 13.909 46.549 41.344 74.304 41.344 4.587 0 9.131-0.555 13.632-1.344v355.968c0 18.411 14.933 33.344 33.344 33.344h361.301v-333.312l96 69.333 96-69.333v333.291h41.301c18.389 0 33.344-14.912 33.344-33.344v-727.957c0-18.368-14.933-33.344-33.344-33.344h-230.507c-37.653-34.731-82.24-68.757-130.795-105.621h440.363c23.296 0 42.219 18.859 42.219 42.219v921.515c-0.021 23.296-18.944 42.197-42.219 42.197zM93.44 108.203v-120.96c0-23.36 18.901-42.219 42.219-42.219h146.347c-79.317 56.939-144.768 106.645-188.565 163.179zM624 282.624c0.491 77.995-55.915 136.789-131.627 136.789-54.955 0-107.819-59.776-129.707-106.432-21.803 46.677-71.893 106.432-126.827 106.432-75.563 0-134.123-58.795-134.379-136.789-0.555-153.963 105.365-235.221 261.205-346.624 146.517 111.403 260.373 194.048 261.333 346.624z" />
<glyph unicode="&#xe503;" glyph-name="discuz" d="M860.864 936l-2.645 0.235-695.083-0.235c-88.384 0-160.021-71.659-160.021-159.979v-463.125c0-88.341 70.656-160 159.019-160h87.467l39.765-138.987c0 0 17.771-54.165 31.808-54.165s31.808 54.165 31.808 54.165l47.701 138.987h461.184c88.384 0 159.019 71.893 159.019 160.235v462.891c0 88.341-71.659 159.979-160.021 159.979z" />
<glyph unicode="&#xe504;" glyph-name="doctorrecord" d="M512 941.714c-272.677 0-493.714-221.038-493.714-493.714s221.038-493.714 493.714-493.714c272.677 0 493.714 221.038 493.714 493.714s-221.038 493.714-493.714 493.714zM680.466 422.162c34.725 0 62.811-28.142 62.811-62.83 0-34.67-28.069-62.757-62.811-62.757-34.688 0-62.793 28.087-62.793 62.757 0 34.688 28.087 62.83 62.793 62.83zM648.814 292.827c-6.912-52.882-34.853-86.199-69.157-86.199-36.023 0-50.962 23.369-55.899 79.415 28.489 0.658 59.922 46.61 78.903 94.501 3.127-1.353 6.601-2.889 10.441-4.553-2.615-7.15-4.151-14.738-4.151-22.747 0.037-28.087 15.122-51.054 39.863-60.416zM410.697 587.355c-3.291 24.85-5.687 47.269-4.517 59.173 2.523 25.874 15.25 49.92 42.13 67.163 28.873-8.009 30.446 12.233 61.422 12.233 31.25 0 38.235-22.528 70.857-12.123 27.173-17.17 34.761-40.905 37.303-67.237 1.207-11.886-1.39-34.341-4.736-59.173 16.183 3.31 9.143-33.847 8.357-45.769-0.713-12.343-5.157-31.689-18.377-27.849-6.619-50.798-27.813-66.816-27.813-66.816l0.512-53.705c0 0 0.11-0.073 0.293-0.165-10.441-44.873-36.224-81.17-66.487-81.17-29.678 0-55.022 34.944-65.829 78.592 2.871 1.481 4.005 2.176 4.005 2.176l0.53 53.979c0 0-21.175 16.146-27.758 66.981-13.257-3.822-17.627 15.561-18.414 27.886-0.658 11.922-7.625 49.17 8.521 45.824zM803.438 197.522h-0.037c0-0.073 0-0.091 0-0.091 0-15.067-12.197-27.355-27.301-27.355h-528.494c-15.104 0-27.337 12.288-27.337 27.355 0 0 0 0.018 0 0.091h-0.018c0 0 0 99.584 72.795 135.753 46.080 22.967 28.325 4.352 84.864 27.813 14.885 6.126 26.715 11.209 36.169 15.397 7.241-18.286 16.768-35.2 21.925-43.118 13.952-21.431 39.753-44.197 55.058-47.89 4.718-68.059 30.062-108.581 91.831-106.533 57.673 1.938 90.368 46.007 98.542 107.557 22.619-1.024 53.449 13.897 62.683 38.546 67.328-38.345 59.319-127.525 59.319-127.525zM705.189 362.551c0-13.654-11.069-24.722-24.722-24.722s-24.722 11.069-24.722 24.722c0 13.654 11.069 24.722 24.722 24.722s24.722-11.069 24.722-24.722z" />
<glyph unicode="&#xe505;" glyph-name="home" d="M98.88 345.173v-333.76c0-26.325 21.333-47.616 47.68-47.616h730.901c26.304 0 47.659 21.291 47.659 47.616v333.76l-413.973 411.691-412.267-411.691zM595.072 25.621h-166.741v332.843h166.741v-332.843zM1007.573 456.213l0.128 0.107-460.8 460.693c-7.701 8.149-18.027 13.611-29.739 14.912-0.064 0-0.064 0-0.128 0-0.725 0.107-1.429 0.128-2.176 0.192-0.149 0-0.235 0.021-0.32 0.021-0.896 0.021-1.728 0.043-2.624 0.043-13.504 0-25.664-5.611-34.283-14.677l-459.456-459.392c-8.96-8.683-14.656-20.907-14.656-34.411 0-26.368 21.355-47.616 47.68-47.616 13.056 0 24.832 5.291 33.429 13.76h0.043l427.285 427.264 428.437-428.117c8.448-8 19.819-12.907 32.384-12.907 26.347 0 47.701 21.248 47.701 47.616 0 12.565-5.013 23.893-12.907 32.512zM864 808c0 0-8 40-48 40s-48-40-48-40v-64l96-96v160z" />
<glyph unicode="&#xe506;" glyph-name="sublist" d="M924.843 910.315h-304.811c-29.781 0-53.909-24.128-53.909-53.888v-304.832c0-29.781 24.128-53.888 53.909-53.888h304.789c29.781 0 53.909 24.107 53.909 53.888v304.832c0.021 29.76-24.107 53.888-53.888 53.888zM924.267 398.293h-304.789c-29.781 0-53.909-24.149-53.909-53.909v-304.789c0-29.781 24.128-53.909 53.909-53.909h304.789c29.781 0 53.952 24.149 53.952 53.909v304.789c0 29.76-24.149 53.909-53.952 53.909zM403.968 398.293h-304.832c-29.76 0-53.888-24.149-53.888-53.909v-304.789c0-29.781 24.149-53.909 53.888-53.909h304.811c29.781 0 53.888 24.149 53.888 53.909v304.789c0.021 29.76-24.107 53.909-53.867 53.909zM99.136 497.707h304.811c29.76 0 53.867 24.128 53.867 53.909v304.811c0 29.781-24.128 53.909-53.867 53.909h-304.811c-29.76 0-53.888-24.128-53.888-53.909v-304.811c0-29.781 24.149-53.909 53.888-53.909z" />
<glyph unicode="&#xe507;" glyph-name="typeface" d="M1006.165 3.968l-144.085 423.787c-6.784 26.197-20.245 39.296-40.448 39.296-18.56 0-32.021-13.099-40.469-39.296l-141.589-423.808c-5.056-11.221-7.552-21.568-7.552-30.869 1.643-14.997 10.112-22.464 25.301-22.464 15.147 0 24.363 6.549 27.776 19.669l30.379 92.608h214.891l27.797-92.608c5.056-13.12 14.293-19.669 27.819-19.669 18.539 0 27.84 7.467 27.84 22.464-0.043 9.323-2.603 19.648-7.659 30.891zM733.099 116.203l88.512 277.845h2.517l88.469-277.845h-179.499zM354.88 893.547c-10.453 42.837-34.752 51.84-53.312 51.84-18.987 0-44.245-9.963-56.661-57.408l-232.256-880.149c-7.275-23.424 1.92-42.795 26.773-53.781 4.885-1.429 9.621-2.176 14.080-2.176 12.8 0 29.973 5.867 39.317 34.603l72.661 277.376h265.408l73.707-277.12c7.488-30.677 27.328-35.243 38.549-35.243 4.992 0 10.368 0.875 16.085 2.581 12.203 3.648 20.843 10.197 25.621 19.328 4.907 9.429 5.291 21.056 1.259 33.813l-231.232 886.336zM188.267 350.464l110.912 418.773 108.928-418.773h-219.84z" />
<glyph unicode="&#xe508;" glyph-name="chairbig" d="M512.043 949.888c-277.227 0-501.909-224.704-501.909-501.867 0-277.184 224.683-501.888 501.909-501.888 277.141 0 501.824 224.704 501.824 501.888 0 277.163-224.683 501.867-501.824 501.867zM780.16 298.219c0-19.093-15.573-34.709-34.603-34.88h-42.048v-81.173c0-19.2-16.171-36.032-35.328-36.032h-314.048c-19.2 0-34.923 15.701-34.923 34.923v82.283h-42.453c-19.093 0.171-34.624 15.787-34.624 34.88v380.992c0 19.2 15.701 34.901 34.901 34.901h468.224c19.2 0 34.923-15.701 34.923-34.901v-380.992zM303.787 321.621h175.808v108.48l62.4 54.4c-2.112 9.344 0.341 18.88 7.424 24.853l30.955 26.112c10.667 9.024 27.691 6.443 37.995-5.739 10.261-12.181 9.984-29.397-0.725-38.4l-30.955-26.155c-6.507-5.504-15.381-6.635-23.659-3.947l-51.883-44.672v-94.955h207.616v302.379h-414.976v-302.357z" />
<glyph unicode="&#xe509;" glyph-name="chair" d="M927.488 952h-830.976c-34.048 0-61.931-27.883-61.931-61.931v-676.117c0-33.92 27.605-61.675 61.419-61.952h75.371v-146.048c0-34.091 27.883-61.952 61.931-61.952h557.376c34.048 0 62.72 29.909 62.72 64v144l74.581 0.064c33.792 0.277 61.419 28.011 61.419 61.888v676.117c0.021 34.048-27.883 61.931-61.909 61.931zM880.448 255.467h-368.448v168.533l92.053 79.253c14.677-4.779 30.443-2.752 42.005 7.019l54.933 46.379c18.987 16 19.541 46.528 1.28 68.16-18.261 21.653-48.448 26.219-67.413 10.197l-54.933-46.379c-12.565-10.603-16.875-27.541-13.184-44.053l-110.741-96.576v-192.533h-312v536.533h736.448v-536.533z" />
<glyph unicode="&#xe50a;" glyph-name="jiuyi" d="M890.091 763.157h-26.261v5.973c0 75.328-61.099 136.448-136.512 136.448h-59.392v0.213l-368.64-0.213c-75.371 0-136.491-61.12-136.491-136.448v-5.888l-26.304-0.085c-75.371 0-136.491-61.099-136.491-136.448v-554.261c0-75.328 60.267-136.448 135.637-136.448h755.285c75.371 0 135.659 61.333 135.659 136.661v554.048c0 75.349-61.141 136.448-136.491 136.448zM335.787 817.664h354.965c51.413 0 77.056-12.843 83.371-54.293h-521.707c6.293 41.451 31.979 54.293 83.371 54.293zM162.752 674.816v-74.219h88.171v56.427h-0.149v18.176h525.013v-18.176h-0.128v-56.427h88.171v74.219c52.245-2.069 74.837-20.437 74.837-76.757l-0.085-41.728c-15.125 5.739-31.381 9.024-48.469 9.024h-79.765v0.213l-673.856-0.213c-17.088 0-33.387-3.285-48.469-9.024l-0.085 41.728c0 56.341 22.549 74.688 74.816 76.757zM938.56 104.789l0.085-3.477c0-60.011-25.152-77.184-85.099-77.184l-680.512-0.192c-59.947 0-85.099 17.152-85.099 77.163l0.085 3.499h0.149v291.904h-0.149l-0.085 3.776c0 60.011 25.152 77.163 85.099 77.163h680.512c59.968 0 85.099-17.152 85.099-77.163l-0.085-3.776h-0.149v-291.712h0.149zM672.363 310.123h-100.501v100.48c0 15.040-12.181 27.243-27.221 27.243h-63.040c-15.040 0-27.243-12.203-27.243-27.243v-100.48h-100.48c-15.061 0-27.243-12.203-27.243-27.264v-63.019c0-15.040 12.203-27.221 27.243-27.221h100.48v-100.501c0-15.040 12.203-27.243 27.243-27.243h63.040c15.040 0 27.221 12.203 27.221 27.243v100.501h100.501c15.040 0 27.264 12.181 27.264 27.221v63.019c0 15.061-12.224 27.264-27.264 27.264z" />
<glyph unicode="&#xe50b;" glyph-name="camera" d="M515.968 591.317c-135.872 0-246.059-110.165-246.059-246.059s110.187-246.059 246.059-246.059c135.915 0 246.080 110.165 246.080 246.059s-110.165 246.059-246.080 246.059zM515.968 208.341c-75.605 0-136.917 61.291-136.917 136.917 0 75.605 61.312 136.917 136.917 136.917s136.896-61.312 136.896-136.917c0.021-75.627-61.291-136.917-136.896-136.917zM1012.16 400.811v213.419c0 88.213-71.552 159.659-159.701 159.659h-49.963v34.752c0 81.152-65.749 146.923-146.923 146.923h-282.197c-81.152 0-146.923-65.771-146.923-146.923v-34.752h-54.891c-88.192 0-159.701-71.445-159.701-159.659v-213.397h-0.299v-300.715c0-88.235 71.531-159.659 159.701-159.659h681.408c88.213 0 159.701 71.445 159.701 159.659v300.715h-0.213zM909.547 297.621v-135.147c-4.373-47.616 15.253-119.211-83.755-119.211h-112.043v0.363l-515.563-0.363c-98.965 0-79.381 71.573-83.712 119.211v214.741h0.277v166.677c4.352 47.616-15.232 127.147 83.733 127.147h126.997v118.72c0 50.837 38.677 70.571 96 70.571h181.077c52.949 0 96-19.712 96-70.571v-118.72h126.997c98.965 0 79.381-71.573 83.712-119.211v-174.613h0.299v-79.595z" />
<glyph unicode="&#xe50c;" glyph-name="other" d="M218.965 371.861c-114.112 0-206.955-92.843-206.955-206.933 0-114.155 92.864-206.976 206.955-206.976s206.955 92.843 206.955 206.976c-0.021 114.091-92.864 206.933-206.955 206.933zM805.035 371.861c-114.112 0-206.955-92.843-206.955-206.933 0-114.155 92.864-206.976 206.955-206.976 114.133 0 206.955 92.843 206.955 206.976 0.021 114.091-92.821 206.933-206.955 206.933zM714.005 731.115c0 114.112-92.843 206.955-206.976 206.955-114.091 0-206.955-92.864-206.955-206.955s92.864-206.933 206.955-206.933c114.133-0.021 206.976 92.821 206.976 206.933z" />
<glyph unicode="&#xe50d;" glyph-name="collect" d="M511.744 932.907c46.208 0 138.048-240.96 172.48-265.963 37.525-27.264 322.901-63.168 336-103.467 13.781-42.325-240.533-205.739-254.208-247.765-13.333-41.045 96.96-323.093 60.011-349.909-37.909-27.563-250.091 165.163-318.272 166.507-60.203 1.195-273.259-193.387-310.229-166.507-34.475 25.024 74.325 306.027 60.011 349.909-11.925 36.523-259.008 210.88-254.251 247.765 5.141 39.637 273.237 59.349 333.376 103.467 80.832 59.285 127.787 265.963 175.083 265.963z" />
<glyph unicode="&#xe50e;" glyph-name="collecthollow" d="M1020.224 563.477c-13.099 40.299-298.475 76.181-336 103.467-34.432 25.003-126.272 265.963-172.48 265.963-47.317 0-94.251-206.677-175.083-265.963-60.139-44.096-328.235-63.829-333.376-103.467-4.757-36.885 242.325-211.243 254.251-247.765 14.293-43.904-94.485-324.885-60.011-349.909 36.971-26.901 250.027 167.68 310.229 166.507 68.203-1.344 280.363-194.069 318.272-166.507 36.928 26.837-73.344 308.885-60.011 349.909 13.675 42.048 267.989 205.44 254.208 247.765zM720 208c22.229-66.667 56.704-123.52 35.755-136.107-19.627-11.776-71.723 28.992-123.755 71.211-48.533 39.403-97.003 80.043-118.955 80.469-19.627 0.405-70.336-40.235-121.045-79.701-53.056-41.323-110.571-81.301-128-71.872-22.656 12.224 13.611 83.776 40 152 22.72 58.752 39.659 114.965 35.243 128.512-7.957 24.405-215.275 144.085-215.723 182.016-0.64 53.099 228.032 23.659 268.181 53.099 53.952 39.573 68.267 212.373 121.344 212.373 45.483 0 98.347-195.669 121.344-212.373 25.045-18.197 266.091-7.573 266.091-53.099s-211.691-153.941-220.821-182.016c-4.352-13.355 16.341-72.512 40.341-144.512z" />
<glyph unicode="&#xe50f;" glyph-name="write" d="M1007.637 663.531l-280.085 280.085c-9.152 9.173-21.184 7.104-26.837-4.565l-37.525-78.229 261.632-261.632 78.229 37.568c11.648 5.568 13.696 17.621 4.587 26.773zM355.328 795.285c-17.131-2.112-31.403-5.781-36.331-28.181 0 0 0 0-0.021-0.064-69.952-335.915-222.976-543.040-222.976-543.040l-74.283-103.424c-15.765-18.453-13.611-46.229 4.885-61.995 18.496-15.808 46.251-13.611 62.037 4.885l242.923 244.075c-12.352 18.432-19.563 40.597-19.563 64.448 0 64.064 51.947 116.011 116.011 116.011s115.989-51.947 115.989-116.011-51.947-115.989-115.989-115.989c-18.56 0-36.053 4.48-51.605 12.224l-268.629-231.189c-20.032-13.739-25.152-41.109-11.392-61.141 13.739-20.053 41.131-25.173 61.163-11.413l130.453 83.52c0 0 207.125 137.067 543.083 206.955 0 0 0 0 0.064 0.043 22.336 4.949 26.027 19.179 28.117 36.331l21.525 257.92-267.563 267.563-257.899-21.525z" />
<glyph unicode="&#xe510;" glyph-name="tips" d="M406.933 146.56c-42.368 41.813-42.197 80.448 6.976 121.024l76.587 76.587c0 0-77.589 76.16-97.728 103.829-27.499 37.781-7.957 63.573 69.867 137.28 71.872 68.032 97.045 117.077 160.619 69.376l90.091-87.637 62.677 62.677c31.275 33.621 77.376 47.509 118.4 34.496 0.811 132.693-96.299 195.605-225.152 195.605-93.461 0-183.403-101.675-220.651-181.035-37.077 79.36-122.261 181.035-215.765 181.035-128.533 0.021-228.16-99.968-228.608-232.683-0.875-261.909 179.307-400.171 444.373-589.675 23.083 17.515 34.923 32.491 34.923 32.491s-42.347 48.789-76.608 76.629zM823.872 628.011l-68.309-68.309 182.805-182.848 68.309 68.309c17.344 17.323 17.344 45.397 0 62.677l-120.128 120.171c-17.301 17.301-45.376 17.301-62.677 0zM428.075 232.192c-17.301-17.344-17.301-45.397 0-62.699l120.107-120.149c17.301-17.344 45.355-17.344 62.656 0l68.331 68.288-182.827 182.848-68.267-68.288zM1006.741 232l-395.968 395.968c-17.28 17.323-45.376 17.323-62.677 0l-120.107-120.171c-17.323-17.28-17.323-45.355 0-62.677l395.968-395.925c17.28-17.344 45.355-17.344 62.677 0l120.128 120.149c17.344 17.301 17.344 45.355-0.021 62.656zM818.453 338.859l-38.379-38.421-38.443 38.421 38.443 38.357 38.379-38.357zM759.189 397.632l-38.421-38.443-38.379 38.443 38.379 38.357 38.421-38.357zM471.296 445.675c-14.315 14.315-14.315 37.589 0 51.947l87.019 86.976c14.379 14.357 37.632 14.357 51.947 0l91.179-91.115-138.944-138.965-91.2 91.157zM619.648 334.912l38.464 38.4 38.336-38.4-38.336-38.421-38.464 38.421zM678.955 276.075l38.421 38.464 38.379-38.464-38.379-38.357-38.421 38.357zM963.413 179.477l-86.955-86.997c-14.4-14.293-37.675-14.293-51.968 0l-91.179 91.2 138.923 138.944 91.179-91.157c14.357-14.315 14.357-37.589 0-51.989z" />
<glyph unicode="&#xe511;" glyph-name="favorite" d="M765.355 920.384c-107.371 0-210.709-116.821-253.483-208-42.603 91.179-140.48 208-247.872 208-147.669 0-262.123-114.901-262.635-267.349-1.003-300.885 205.995-459.712 510.507-677.419 286.379 217.685 508.885 379.221 510.763 677.397 0.939 152.448-109.291 267.371-257.28 267.371z" />
<glyph unicode="&#xe512;" glyph-name="favoritehollow" d="M765.355 920.341c-107.371 0-210.56-109.184-253.355-200.384-42.795 91.179-145.984 200.384-253.355 200.384-148.011 0-258.219-114.901-257.28-267.328 1.877-298.176 224.32-459.712 510.635-677.355 286.315 217.621 508.757 379.157 510.635 677.333 0.939 152.448-109.291 267.349-257.28 267.349zM512 40c-85.589 65.963-259.413 202.091-352 327.957-58.859 80-96 128-104 288-0.32 6.464-0.192 12.992 0.192 19.584 1.941 104.384 86.976 188.416 191.808 188.416 11.883 0.725 40.917-4.48 41.365-4.608 110.635-11.392 222.635-227.392 222.635-227.392s112 216 222.635 227.392c0.448 0.128 29.504 5.333 41.365 4.608 104.832 0 189.867-84.032 191.808-188.416 0.384-6.592 0.491-13.12 0.192-19.584-8-160-45.141-208-104-288-92.587-125.867-266.411-261.995-352-327.957z" />
<glyph unicode="&#xe513;" glyph-name="listmore" d="M632 832c0-66.274-53.726-120-120-120s-120 53.726-120 120c0 66.274 53.726 120 120 120s120-53.726 120-120zM632 448c0-66.274-53.726-120-120-120s-120 53.726-120 120c0 66.274 53.726 120 120 120s120-53.726 120-120zM632 64c0-66.274-53.726-120-120-120s-120 53.726-120 120c0 66.274 53.726 120 120 120s120-53.726 120-120z" />
<glyph unicode="&#xe514;" glyph-name="rightbig" d="M512.043 949.867c-277.227 0-501.909-224.683-501.909-501.845 0-277.184 224.683-501.888 501.909-501.888 277.141 0 501.824 224.704 501.824 501.888 0 277.163-224.683 501.845-501.824 501.845zM812.885 578.688l-350.763-350.763c-0.213-0.213-0.448-0.341-0.661-0.533l-2.048-2.048c-16.661-16.619-43.691-16.619-60.352 0l-183.659 183.701c-16.661 16.661-16.661 43.669 0 60.331l35.819 35.819c16.661 16.661 43.669 16.661 60.331 0l117.781-117.739 287.403 287.403c16.661 16.661 43.669 16.661 60.331 0l35.84-35.819c16.64-16.661 16.64-43.691-0.021-60.352z" />
<glyph unicode="&#xe515;" glyph-name="share" d="M868.011 248c-52.097 0-98.133-25.642-126.464-64.897l-435.136 224.021c3.542 13.035 5.59 26.709 5.59 40.875 0 17.472-3.008 34.219-8.299 49.899l434.176 220.16c27.925-42.196 75.734-70.059 130.133-70.059 86.165 0 156.011 69.824 156.011 156.011-0.021 86.145-69.844 155.989-156.011 155.989s-156.011-69.844-156.011-156.011c0-14.656 2.177-28.779 5.93-42.219l-436.459-221.355c-28.416 38.507-73.963 63.573-125.482 63.573-86.165 0-155.989-69.824-155.989-155.989s69.824-156.011 156.011-156.011c54.891 0 103.061 28.395 130.858 71.232l432.876-222.869c-4.949-15.231-7.724-31.468-7.724-48.363 0-86.165 69.824-156.011 156.011-156.011s155.968 69.844 155.968 156.011-69.824 156.011-155.989 156.011z" />
<glyph unicode="&#xe516;" glyph-name="sharehollow" d="M868.011 248c-52.097 0-98.133-25.644-126.464-64.897l-435.136 224.021c3.542 13.035 5.59 26.71 5.59 40.875 0 17.471-3.008 34.219-8.299 49.9l434.176 220.16c27.925-42.196 75.734-70.059 130.133-70.059 86.165 0 156.011 69.824 156.011 156.011-0.021 86.145-69.844 155.989-156.011 155.989s-156.011-69.844-156.011-156.011c0-14.656 2.174-28.779 5.93-42.219l-436.459-221.355c-28.416 38.507-73.963 63.574-125.482 63.574-86.165 0-155.989-69.824-155.989-155.989s69.824-156.011 156.011-156.011c54.892 0 103.060 28.395 130.858 71.232l432.876-222.869c-4.949-15.231-7.724-31.469-7.724-48.363 0-86.165 69.824-156.011 156.011-156.011s155.968 69.844 155.968 156.011-69.824 156.011-155.989 156.011zM868.011 928c68.5 0 124.011-55.508 124.011-124.011 0-68.481-55.508-124.011-124.011-124.011s-124.011 55.531-124.011 124.011c0 68.5 55.508 124.011 124.011 124.011zM156.011 323.989c-68.5 0-124.011 55.531-124.011 124.011s55.508 124.011 124.011 124.011c68.5 0 124.011-55.508 124.011-124.011-0.021-68.481-55.531-124.011-124.011-124.011zM868.011-32c-68.5 0-124.011 55.531-124.011 124.011 0 68.5 55.508 124.011 124.011 124.011s124.011-55.508 124.011-124.011c-0.021-68.481-55.531-124.011-124.011-124.011z" />
<glyph unicode="&#xe517;" glyph-name="right" d="M982.229 745.387l-56.384 56.384c-26.219 26.219-68.757 26.219-94.976 0l-452.373-452.416-185.387 185.344c-26.219 26.24-68.736 26.24-94.976 0l-56.363-56.384c-26.24-26.219-26.24-68.757 0-94.997l289.109-289.088c26.219-26.219 68.757-26.219 94.997 0l3.2 3.157c0.32 0.32 0.725 0.533 1.045 0.875l552.107 552.128c26.24 26.24 26.24 68.757 0 94.997z" />
<glyph unicode="&#xe518;" glyph-name="discuzhollow" d="M860.864 936l-2.645 0.235-695.083-0.235c-88.384 0-160.021-71.659-160.021-159.979v-463.125c0-88.341 70.656-160 159.019-160h87.467l39.765-138.987c0 0 17.771-54.165 31.808-54.165s31.808 54.165 31.808 54.165l47.701 138.987h461.184c88.384 0 159.019 71.893 159.019 160.235v462.891c0 88.341-71.659 159.979-160.021 159.979zM965.205 325.525c0-63.616-32.789-120.811-111.317-120.811l-485.013 0.043-47.701-189.333-39.765 189.333-46.827-0.299h-56.533c-78.528 0-119.531 42.411-119.531 121.067v437.291c0.256 55.659 33.045 111.317 111.573 111.317h683.776c78.528 0 111.317-55.659 111.467-111.317l-0.277-146.112 0.149-291.179z" />
<glyph unicode="&#xe519;" glyph-name="praise" d="M43.947 429.376h78.72c0 0 39.36 96.256 118.123 183.744 51.755 57.536 104.96 61.248 161.835 139.989 29.376 40.683 83.115 196.864 83.115 196.864s86.741-0.981 109.376-65.621c30.635-87.488 4.373-131.221 4.373-131.221s-61.269-157.483-52.523-179.349c12.459-31.104 99.477 2.88 161.877 8.747 78.208 7.36 161.856-8.747 161.856-8.747s26.24 0 48.128-39.381c26.624-47.915 0-48.107 4.373-87.488 2.475-22.421 56.853-13.12 56.853-69.995 0-61.397-39.381-91.861-39.381-91.861s51.84-41.387 35.008-91.861c-17.493-52.523-56.853-61.269-56.853-61.269s13.632-71.424-8.747-104.981c-35.008-52.48-100.629-69.995-100.629-69.995s-233.301-16.619-310.592-8.747c-214.357 21.888-371.819 87.509-371.819 87.509h-83.093v393.664z" />
<glyph unicode="&#xe51a;" glyph-name="praisehollow" d="M940.693 285.013c0 0 39.381 30.464 39.381 91.861 0 56.875-54.379 47.573-56.853 69.995-4.373 39.381 22.251 39.573-4.373 87.488-21.867 39.381-48.128 39.381-48.128 39.381s-83.648 16.107-161.856 8.747c-62.4-5.867-149.419-39.851-161.877-8.747-8.747 21.867 52.523 179.349 52.523 179.349s26.24 43.755-4.373 131.221c-22.635 64.64-109.376 65.621-109.376 65.621s-53.739-156.16-83.115-196.864c-56.875-78.72-110.080-82.453-161.856-139.989-78.763-87.488-118.101-183.744-118.101-183.744h-78.741v-393.707h83.115c0 0 157.461-65.6 371.819-87.509 77.291-7.872 310.592 8.747 310.592 8.747s65.621 17.515 100.629 69.995c22.379 33.557 8.747 104.981 8.747 104.981s39.36 8.747 56.853 61.269c16.811 50.517-35.008 91.904-35.008 91.904zM908.096 204.245c-15.595-46.827-50.709-54.656-50.709-54.656s12.139-63.68-7.787-93.611c-31.232-46.805-65.6-48-65.6-48s-219.093-14.997-288-7.979c-191.147 19.52-336 96-336 96h-68.053v280h66.283c0 0 43.541 113.984 113.771 192 46.144 51.307 58.731 60.032 128 112 32 24 32 24 112 200 0 0 40.427 12.587 48-48 8-64-48-184-48-184s-55.829-116.501-48-136c11.093-27.755 144.363 10.773 200 16 69.76 6.571 160-8 160-8s22.037 3.947 40-32c16-32 0-32 0-64 0-20.117 48-5.205 48-55.936 0-54.741-35.115-81.899-35.115-81.899s46.229-36.907 31.211-81.92z" />
<glyph unicode="&#xe51b;" glyph-name="cancelbig" d="M512.043 949.867c-277.227 0-501.909-224.683-501.909-501.845 0-277.184 224.683-501.888 501.909-501.888 277.141 0 501.824 224.704 501.824 501.888 0 277.163-224.683 501.845-501.824 501.845zM776.939 215.125l-35.84-35.84c-16.661-16.661-43.669-16.661-60.331 0l-164.992 164.992-164.971-164.992c-16.661-16.661-43.691-16.661-60.352 0l-35.84 35.84c-16.64 16.661-16.64 43.669 0 60.331l164.992 164.971-164.971 164.992c-16.661 16.661-16.661 43.669 0 60.331l35.819 35.84c16.661 16.661 43.691 16.661 60.352 0l164.971-164.992 164.992 164.992c16.661 16.661 43.669 16.661 60.331 0l35.819-35.84c16.661-16.661 16.661-43.669 0-60.331l-164.971-164.992 164.992-164.971c16.64-16.661 16.64-43.669 0-60.331z" />
<glyph unicode="&#xe51c;" glyph-name="cancel" d="M979.307 152.704l-295.232 295.296 295.168 295.232c29.845 29.803 29.845 78.165 0 107.989l-64.064 64.107c-29.803 29.803-78.144 29.803-107.968 0l-295.211-295.275-295.211 295.253c-29.803 29.803-78.165 29.803-107.989 0l-64.064-64.107c-29.824-29.803-29.824-78.165 0-107.989l295.189-295.211-295.232-295.296c-29.781-29.739-29.781-78.101 0-107.947l64.128-64.107c29.803-29.781 78.165-29.781 107.989 0l295.189 295.253 295.232-295.232c29.803-29.781 78.144-29.781 107.968 0l64.128 64.107c29.781 29.824 29.781 78.208-0.021 107.925z" />
<glyph unicode="&#xe600;" glyph-name="huizhen" d="M879.509 560.811c-57.152 0-105.877-37.995-119.787-92.885-23.211-12.096-52.032-32.427-64.875-62.677-12.928-30.443-11.243-67.349-9.301-110.080 2.069-44.843 4.373-95.637-12.011-143.509-11.584-33.771-61.995-105.429-143.957-111.232-68.949-5.077-103.68 60.395-116.16 91.499 6.037 14.016 6.976 27.008 7.019 28.075v80.171c134.357 35.349 195.392 175.019 196.288 177.259 0.619 2.005 3.285 11.989 0.384 25.088 14.869 24.725 24.64 44.608 29.205 54.464 31.552 67.541 87.381 256.021 38.443 321.813-21.184 28.437-58.219 46.485-94.101 63.979-11.008 5.355-21.739 10.581-31.445 15.915-6.549 3.605-13.248 8.341-19.989 14.059-11.115 24.917-35.648 40.917-63.040 40.917-38.080 0-69.056-30.976-69.056-69.056 0-38.101 30.976-69.077 69.056-69.077 11.989 0 23.701 3.115 34.112 9.045 6.080-1.259 11.819-2.688 17.088-4.309 33.515-10.368 66.837-30.507 82.944-50.091 25.28-30.656-5.419-153.131-37.653-224-9.216-20.181-17.088-36.331-24.576-50.304-26.069-1.216-39.531-21.483-40.363-22.763-2.901-5.077-72.043-124.501-150.955-125.269-77.099 0-137.813 103.168-150.229 125.525-1.109 1.451-10.859 13.632-27.947 18.944-8.149 14.997-16.832 32.683-26.496 53.888-32.235 70.848-62.933 193.323-37.675 224 16.128 19.584 49.472 39.723 82.987 50.091 5.269 1.643 10.987 3.072 17.067 4.309 10.389-5.931 22.101-9.045 34.091-9.045 38.080 0 69.077 30.997 69.077 69.077s-30.997 69.056-69.077 69.056c-27.392 0-51.925-16-63.040-40.917-6.784-5.76-13.483-10.475-19.947-14.037-9.749-5.333-20.48-10.581-31.509-15.936-35.797-17.472-72.853-35.541-94.016-64-48.96-65.771 6.869-254.272 38.4-321.813 3.84-8.213 11.883-24.683 23.701-45.141-8.128-24.832 2.475-48.725 2.496-48.725 2.219-5.696 55.083-137.749 198.464-165.845l0.085-79.275c0.32-2.965 3.648-28.693 21.269-46.208 16.021-52.629 66.283-169.451 196.373-169.451 9.088 0 18.475 0.576 27.861 1.749 149.717 18.411 218.389 148.075 228.032 230.763 3.029 26.176 1.173 55.296-0.853 86.507-2.325 36.373-4.757 74.005 1.813 104.171 0.064 0.32 0.149 0.619 0.235 0.917 22.976-33.003 60.864-53.056 101.547-53.056 68.224 0 123.733 55.531 123.733 123.755 0 68.181-55.488 123.669-123.712 123.669z" />
<glyph unicode="&#xe601;" glyph-name="include" d="M871.040 903.915c-34.368 34.688-78.763 53.781-125.056 53.781l-414.293-0.043c-16.448-1.003-47.808-12.629-48.747-49.387-0.405-16.789 4.395-30.464 14.293-40.619 14.016-14.379 32.149-15.104 35.627-15.104h382.080c30.571 0 54.784-8.832 72.085-26.24 26.112-26.325 39.040-73.451 38.443-140.139l0.043-509.973c1.173-19.605 16.384-48.747 53.44-48.747 40 0 52.459 32.277 53.461 49.899v572.459c0.491 58.091-21.867 114.261-61.376 154.112zM598.165 744h-443.84c-63.040 0-114.325-51.285-114.325-114.347v-577.045c0-63.019 51.307-114.304 114.325-114.304h443.84c63.040 0 114.325 51.285 114.325 114.304v577.045c0 63.061-51.285 114.347-114.325 114.347zM141.611 628.48c0 4.736 3.84 8.576 8.576 8.576h448.555c4.757 0 8.576-3.861 8.576-8.576v-184.384h-137.6v78.635l-162.112-162.133 162.112-162.069v79.872h137.6v-224.597c0-4.757-3.84-8.576-8.576-8.576h-448.533c-4.736 0-8.576 3.84-8.576 8.576v574.677z" />
<glyph unicode="&#xe617;" glyph-name="bank" d="M884.245 917.995h-747.221c-59.52 0-107.755-49.131-107.755-109.76v-713.685c0-60.629 48.256-109.739 107.755-109.739h747.221c59.52 0 107.755 49.109 107.755 109.739v713.685c0 60.629-48.235 109.76-107.755 109.76zM788.8 550.869h-227.712v-145.856h170.56v-78.677h-170.56v-208.96h-98.005v208.96h-173.461v78.677h173.461v145.856h-230.592v78.635h142.784l-75.307 153.6h105.024l75.307-153.6h59.477l81.749 155.925h105.045l-81.771-155.925h143.979v-78.635z" />
<glyph unicode="&#xe62a;" glyph-name="shopmaster" d="M976.661 592.789l-90.496 120.619c-3.563 4.757-7.744 8.853-12.117 12.8v144.171c0 33.323-27.029 60.352-60.331 60.352h-603.435c-33.365 0-60.331-27.051-60.331-60.352v-144.192c-4.352-3.925-8.533-7.979-12.075-12.715l-90.453-120.661c-11.733-15.552-18.155-34.816-18.155-54.315v-30.144c0-49.92 40.597-90.517 90.517-90.517v-392.277c0-33.301 27.029-60.288 60.331-60.288h663.787c33.323 0 60.309 27.008 60.309 60.288v392.277c49.92 0 90.496 40.597 90.496 90.517v30.144c0.021 19.499-6.4 38.784-18.048 54.293zM676.48 888.512h65.067c10.517 0 18.432-0.469 24.299-1.472 8.427-1.344 15.808-4.011 21.803-7.957 6.229-4.053 11.157-9.749 14.848-16.875 3.584-6.976 5.419-14.72 5.419-22.997 0-14.144-4.885-26.325-14.4-36.245-9.941-10.219-26.325-15.211-50.24-15.211h-29.675v-57.749h-37.12v158.507zM530.453 868.48c14.933 14.976 34.411 22.571 57.899 22.571 15.339 0 29.376-3.541 41.749-10.56 12.459-7.040 22.123-17.024 28.651-29.632 6.4-12.309 9.6-26.347 9.6-41.771 0-15.637-3.392-29.909-10.112-42.389-6.869-12.843-16.811-22.677-29.547-29.312-12.501-6.485-26.112-9.792-40.469-9.792-15.595 0-29.845 3.691-42.261 10.923-12.437 7.253-22.016 17.344-28.459 29.888-6.229 12.224-9.408 25.365-9.408 39.040-0.021 25.643 7.531 46.208 22.357 61.035zM605.589 490.261c0 0-25.643-26.155-97.301-26.155-81.195 0-102.656 26.155-102.656 26.155l43.691 212.971h119.573l36.693-212.971zM363.989 888.512h37.163v-58.283h60.245v58.283h37.184v-158.528h-37.184v66.965h-60.245v-66.965h-37.163v158.528zM315.029 783.445c-1.173 1.429-3.819 3.584-9.664 5.739-2.56 0.939-9.003 2.859-25.536 6.613-14.571 3.307-24.661 6.464-30.869 9.6-8.448 4.181-14.955 9.621-19.243 16.107-4.352 6.571-6.592 13.995-6.592 22.101 0 8.725 2.624 17.024 7.829 24.597 5.248 7.616 12.885 13.44 22.699 17.301 19.349 7.595 45.227 7.019 63.445-0.256 10.027-4.032 17.92-10.133 23.403-18.048 5.419-7.829 8.363-16.768 8.747-26.603l0.32-7.957-35.712-2.56-0.896 7.957c-0.768 6.784-3.136 11.648-7.253 14.827-4.224 3.307-11.115 4.971-20.501 4.971-12.288 0-18.069-2.389-20.693-4.416-4.416-3.328-4.949-6.357-4.949-8.597 0-2.752 0.896-4.736 2.923-6.443 0.725-0.64 5.099-3.755 25.92-8.235 16.811-3.605 28.181-6.741 34.752-9.579 10.197-4.459 17.877-10.283 22.869-17.387 5.12-7.168 7.723-15.552 7.723-24.811 0-9.131-2.773-17.835-8.235-25.856-5.461-7.979-13.291-14.251-23.317-18.624-9.643-4.181-20.544-6.315-32.427-6.315-14.677 0-27.221 2.133-37.44 6.315-10.688 4.352-19.2 11.093-25.344 19.968-6.059 8.768-9.344 18.816-9.6 29.803l-0.213 7.808 35.221 2.944 0.981-7.979c0.704-5.76 2.304-10.389 4.736-13.824 2.283-3.179 6.080-5.909 11.307-8.085 10.688-4.416 26.197-4.629 36.288-0.875 4.16 1.536 7.168 3.499 8.981 5.867 1.728 2.283 2.603 4.693 2.603 7.339 0 2.603-0.725 4.693-2.261 6.592zM129.792 488.704l106.795 214.549h76.032l19.563-212.971c0 0-22.976-26.24-95.595-26.24-81.173-0.021-106.795 24.661-106.795 24.661zM843.925 25.557h-181.056v301.76c0 16.661-13.568 30.165-30.165 30.165h-226.304c-16.64 0-30.165-13.504-30.165-30.165v-301.76h-196.117v392.277h663.787v-392.277zM791.936 464.085c-72.64 0-100.949 26.197-100.949 26.197l24.917 213.035 76.032-0.064 110.187-217.6c0 0-29.035-21.568-110.187-21.568zM631.531 813.312c0-27.063-19.188-49.003-42.859-49.003s-42.859 21.939-42.859 49.003c0 27.063 19.188 49.003 42.859 49.003s42.859-21.939 42.859-49.003zM748.821 821.547c8.405 0 15.189 6.784 15.189 15.189 0 8.427-6.784 15.211-15.189 15.211h-19.776c-4.373 0-15.211 0-15.211 0s0-11.136 0-15.211c0-4.203 0-15.189 0-15.189s11.029 0 15.211 0h19.776z" />
<glyph unicode="&#xe62b;" glyph-name="bus" d="M406.869 426.517h206.251v-205.76h-206.251v205.76zM777.024 351.211c0-33.98-27.603-61.525-61.653-61.525s-61.653 27.546-61.653 61.525c0 33.98 27.603 61.525 61.653 61.525s61.653-27.546 61.653-61.525zM365.397 352.32c0-33.968-27.603-61.504-61.653-61.504s-61.653 27.536-61.653 61.504c0 33.968 27.603 61.504 61.653 61.504s61.653-27.536 61.653-61.504zM883.093 917.056h-746.219c-59.435 0-107.605-49.323-107.605-110.123v-716.16c0-60.821 48.171-110.101 107.605-110.101h746.219c59.413 0 107.605 49.301 107.605 110.101v716.16c-0.021 60.8-48.192 110.123-107.605 110.123zM777.045 139.627v-15.147c0-26.368-21.483-47.808-47.936-47.808-26.432 0-47.893 21.44-47.893 47.808v15.147c0 1.792 0.341 3.541 0.576 5.269h-344.427c0.171-1.728 0.512-3.477 0.512-5.269v-15.147c0-26.368-21.44-47.808-47.893-47.808s-47.893 21.44-47.893 47.808v15.147c0 1.877 0.363 3.669 0.576 5.461-18.923 0.405-35.947 8.235-48.469 20.48h631.68c-12.736-12.48-30.123-20.352-49.408-20.587 0.213-1.771 0.576-3.52 0.576-5.355zM847.36 216.448c0-6.805-1.259-13.269-3.093-19.541h-668.587c-1.792 6.272-3.051 12.736-3.051 19.541v530.027c0 39.531 32.107 71.552 71.723 71.552h531.307c39.573 0 71.701-32.043 71.701-71.552v-530.027zM737.557 755.584h-455.723c-21.931 0-39.744-17.749-39.744-39.637v-222.059c0-21.888 17.813-39.659 39.744-39.659h455.723c21.973 0 39.744 17.771 39.744 39.659v222.080c0.021 21.888-17.749 39.616-39.744 39.616z" />
<glyph unicode="&#xe62c;" glyph-name="metro" d="M882.667 918.784h-745.771c-59.392 0-107.541-49.365-107.541-110.272v-717.12c0-60.907 48.149-110.315 107.541-110.315h745.771c59.371 0 107.541 49.387 107.541 110.315v717.12c0 60.907-48.171 110.272-107.541 110.272zM779.584 13.333l-20.459 31.701h-498.688l-20.437-31.701h-62.229l90.901 140.928h-39.723c-11.093 0-20.032 10.069-20.032 22.464v636.715c0 12.395 8.96 22.443 20.032 22.443h136.427c-0.405 2.261-0.683 4.544-0.683 6.912 0 22.571 18.261 40.811 40.832 40.811h215.744c22.464 0 40.789-18.24 40.789-40.811 0-2.368-0.299-4.651-0.661-6.912h136.384c11.051 0 20.032-10.048 20.032-22.443v-636.715c0-12.395-9.003-22.464-20.032-22.464h-46.784l90.837-140.928h-62.251zM612.331 365.568h124.501v-68.629h-124.501v68.629zM290.731 365.568h124.565v-68.629h-124.565v68.629zM331.136 154.261l-34.539-53.504h427.285l-34.539 53.504zM724.288 749.056h-421.035c-6.933 0-12.523-6.251-12.523-13.973v-226.048c0-7.701 5.589-13.952 12.523-13.952h421.035c6.997 0 12.544 6.251 12.544 13.952v226.048c0 7.723-5.547 13.973-12.544 13.973z" />
<glyph unicode="&#xe635;" glyph-name="list" d="M307.819 799.893h676.629v-135.104h-676.629v135.104zM37.76 799.893h131.968v-135.104h-131.968v135.104zM37.333 512.448h131.968v-135.125h-131.968v135.125zM307.392 512.469h676.608v-135.104h-676.608v135.104zM37.333 232.725h131.968v-135.104h-131.968v135.104zM307.392 232.725h676.629v-135.104h-676.629v135.104z" />
<glyph unicode="&#xe636;" glyph-name="lancare" d="M290.603 691.925c-109.44-6.421-131.584-109.632-131.584-208.32 0-75.413 5.717-150.848 31.851-199.381 0.939-1.813 40.576-72.021 141.035-82.283 43.2 0 56.981-0.021 57.621 0 259.285 14.443 471.211 73.323 471.211 182.976 0.021 131.563-383.723 317.973-570.133 307.008zM402.731 500.331c5.44 15.637 13.099 28.928 22.997 39.893 9.92 10.923 21.867 19.2 35.947 24.875 14.037 5.653 29.547 8.512 46.485 8.512 13.013 0 25.109-1.771 36.181-5.227 11.115-3.477 20.928-8.469 29.483-14.976 8.555-6.528 15.531-14.699 20.928-24.533 5.419-9.792 9.109-21.077 10.88-33.771h-44.139c-0.661 14.549-6.123 25.664-16.235 33.28-10.197 7.616-22.571 11.413-37.099 11.413-10.325 0-19.691-1.92-28.032-5.824-8.405-3.904-15.637-9.792-21.739-17.664-6.101-7.893-10.837-17.557-14.251-29.077-3.349-11.52-5.056-24.981-5.056-40.363 0-15.424 1.707-28.949 5.056-40.512 3.413-11.627 8.149-21.312 14.251-29.12 6.080-7.765 13.333-13.589 21.739-17.472 8.363-3.904 17.707-5.845 28.032-5.845 6.933 0 13.547 0.917 19.819 2.773 6.272 1.899 11.797 4.672 16.64 8.256 4.843 3.691 8.747 8.277 11.648 13.888 3.008 5.547 4.736 12.011 5.227 19.264h44.139c-1.771-12.885-5.461-24.149-11.029-33.749-5.504-9.685-12.544-17.792-21.099-24.405s-18.283-11.563-29.291-14.848c-11.008-3.307-23.040-4.928-36.053-4.928-16.939 0-32.384 2.837-46.357 8.448-13.973 5.717-25.899 13.888-35.819 24.597-9.899 10.816-17.6 24.021-23.104 39.659-5.504 15.659-8.277 33.664-8.277 53.995 0 19.968 2.709 37.781 8.128 53.461zM641.643 264.085h-324.139v312.448h50.432v-269.248h273.707v-43.2zM885.12 917.355h-746.261c-59.413 0-107.605-49.323-107.605-110.101v-716.053c0-60.8 48.192-110.101 107.605-110.101h746.261c59.456 0 107.627 49.323 107.627 110.101v716.053c0 60.779-48.171 110.101-107.627 110.101zM360.704 115.2c-0.832 0-47.787 0.107-55.296 0.981-131.989 13.419-189.781 123.712-190.997 126.059-34.325 63.637-41.835 177.557-41.835 276.651 0 129.664 72.043 244.907 187.285 259.328 243.435 30.421 691.541-216.107 691.541-388.971 0.021-144.085-211.392-274.133-590.699-274.048z" />
<glyph unicode="&#xe637;" glyph-name="male" d="M981.483 841.557c-0.149 17.195-7.275 32.661-18.645 43.797-11.392 11.179-27.029 18.005-44.181 17.813l-366.251-4.224c-34.304-0.32-61.909-28.395-61.611-62.72 0.363-34.368 28.459-61.952 62.784-61.632l220.736 2.667-278.229-262.805c-47.595 34.624-106.027 55.275-169.365 55.275-159.317 0-288.448-129.131-288.448-288.448s129.131-288.469 288.448-288.469c159.339 0 288.491 129.173 288.491 288.469 0 56-16.299 108.075-43.84 152.32l287.339 271.381 2.709-199.723c0.299-34.368 28.416-61.931 62.72-61.589 34.325 0.299 61.888 28.373 61.589 62.699l-4.245 335.189zM326.72 102.549c-98.667 0-178.709 80-178.709 178.731s80.021 178.731 178.709 178.731c98.731 0 178.752-80 178.752-178.731s-80.021-178.731-178.752-178.731z" />
<glyph unicode="&#xe638;" glyph-name="female" d="M567.040 353.323c132.395 25.728 232.405 142.101 232.405 282.027 0 158.741-128.683 287.445-287.445 287.445-158.741 0-287.445-128.683-287.445-287.445 0-139.925 100.011-256.299 232.384-282.027v-93.227h-172.032v-110.123h172.032v-176.725h110.101v176.725h172.053v110.123h-172.053v93.227zM333.931 635.328c0 98.347 79.744 178.091 178.069 178.091 98.347 0 178.091-79.723 178.091-178.091s-79.744-178.069-178.091-178.069c-98.325 0-178.069 79.723-178.069 178.069z" />
<glyph unicode="&#xe639;" glyph-name="key" d="M1006.805 14.827v185.621l-376.469 376.491c3.371 18.389 5.163 37.333 5.163 56.704 0 170.923-138.496 309.419-309.376 309.419-170.944 0-309.419-138.517-309.419-309.419s138.475-309.397 309.419-309.397c36.949 0 72.427 6.507 105.344 18.453l80.299-80.384h123.733v-123.755h123.776l32.939-96.661 81.173 11.541 105.749-100.544c34.176 0.021 27.669 27.733 27.669 61.931zM236.288 564.075c-78.443 0-142.123 63.595-142.123 142.144 0 78.485 63.68 142.165 142.123 142.165 78.571 0 142.187-63.659 142.187-142.165 0-78.549-63.616-142.144-142.187-142.144z" />
<glyph unicode="&#xe63a;" glyph-name="code" d="M316.608 911.787h54.315v-929.387h-54.315v929.387zM469.163 911.787h204.821v-929.387h-204.821v929.387zM26.091 913.6h204.821v-929.451h-204.821v929.451zM943.552 911.787h54.357v-929.387h-54.357v929.387zM761.749 911.787h54.357v-929.387h-54.357v929.387zM230.891-15.851h-204.8v929.451h204.821v-929.451zM370.923-17.6h-54.315v929.387h54.315v-929.387zM673.984-17.6h-204.821v929.387h204.821v-929.387zM816.107-17.6h-54.357v929.387h54.357v-929.387zM997.909-17.6h-54.357v929.387h54.357v-929.387z" />
<glyph unicode="&#xe63b;" glyph-name="lock" d="M797.995 548.928h-16.832v201.899c0 111.296-90.581 201.877-201.877 201.877h-134.571c-111.36 0-201.877-90.581-201.877-201.877v-201.877h-16.853c-27.755 0-50.453-22.699-50.453-50.475v-504.683c0-27.797 22.699-50.496 50.453-50.496h572.011c27.755 0 50.453 22.699 50.453 50.496v504.683c0 27.755-22.699 50.453-50.453 50.453zM533.035 253.333v-100.8h-44.16v100.8c-30.336 6.507-44.139 33.365-44.139 65.707 0 37.163 30.101 67.285 67.264 67.285 37.141 0 67.307-30.123 67.307-67.285-0.021-32.341-15.936-59.2-46.272-65.707zM646.592 548.928h-269.184v201.899c0 37.099 30.165 67.285 67.307 67.285h134.571c37.12 0 67.285-30.187 67.285-67.285v-201.899z" />
<glyph unicode="&#xe63e;" glyph-name="testbig" d="M433.92 375.317c-25.323-5.312-41.536-30.123-36.203-55.467 5.333-25.387 30.208-41.557 55.531-36.245 25.301 5.333 41.515 30.187 36.16 55.531-5.291 25.344-30.165 41.557-55.488 36.181zM512 950.592c-277.589 0-502.592-225.024-502.592-502.592 0-277.547 224.981-502.592 502.592-502.592 277.547 0 502.592 225.045 502.592 502.592 0 277.568-225.045 502.592-502.592 502.592zM434.731 646.229h158.016v-276.352l-158.016 103.104v173.248zM350.485 109.888h-158.037v395.093h158.037v-43.989l-79.019-121.728c-2.709-4.139-12.843-16.021 3.797-26.709l75.221-48.981v-153.685zM434.731 109.888v100.48l158.016-100.48h-158.016zM313.429 321.749c-3.819 2.432-4.885 7.552-2.411 11.307l78.677 120.512c2.389 3.84 7.467 4.907 11.328 2.411l335.467-218.859c-0.789-3.2-1.515-6.443-2.411-9.664-14.187-49.685-47.957-89.643-83.115-125.867l-337.536 220.16zM831.552 109.888h-107.968c25.152 33.088 33.365 53.931 48.619 94.677 1.323 3.435 12.672 37.269 13.504 40.789l-112.213 71.851v477.227h158.037v-684.544z" />
<glyph unicode="&#xe644;" glyph-name="ATM" d="M280 286.784h24v-32h-24v32zM120 286.784h24v-32h-24v32zM240 286.784h24v-32h-24v32zM120 654.784h184v-216h-184v216zM200 286.784h24v-32h-24v32zM160 286.784h24v-32h-24v32zM320 286.784h24v-32h-24v32zM884.373 465.6h-32.747c-15.275 0-27.627-12.373-27.627-27.605v-27.584c0-15.296 12.352-27.627 27.627-27.627h32.747c15.275 0 27.627 12.331 27.627 27.627v27.584c0 15.253-12.352 27.605-27.627 27.605zM360 286.784h24v-32h-24v32zM885.12 916.139h-746.261c-59.413 0-107.605-49.323-107.605-110.101v-716.075c0-60.8 48.192-110.080 107.605-110.080h746.261c59.456 0 107.627 49.301 107.627 110.080v716.075c0 60.779-48.171 110.101-107.627 110.101zM968 276.117c0-47.125-38.208-85.333-85.333-85.333h-741.333c-47.125 0-85.333 38.208-85.333 85.333v338.667c0 47.125 38.208 85.333 85.333 85.333h741.333c47.125 0 85.333-38.208 85.333-85.333v-338.667zM400 286.784h24v-32h-24v32zM440 286.784h24v-32h-24v32z" />
<glyph unicode="&#xe645;" glyph-name="bloodpressure" d="M423.979 481.472c0-25.815-20.927-46.741-46.741-46.741s-46.741 20.927-46.741 46.741c0 25.815 20.927 46.741 46.741 46.741s46.741-20.927 46.741-46.741zM511.915 604.864v118.635c0 18.496-19.285 33.493-43.115 33.493h-168.725c-23.808 0-43.136-14.997-43.136-33.493v-118.656c0-18.496 19.328-33.515 43.136-33.493h168.725c23.808 0 43.115 15.019 43.115 33.515zM693.44 433.195c-28.651 0-51.883-23.147-51.883-51.904 0-28.672 23.232-51.968 51.883-51.968s51.968 23.296 51.968 51.968c-0.021 28.757-23.317 51.904-51.968 51.904zM885.12 916.139h-746.261c-59.413 0-107.605-49.323-107.605-110.101v-716.075c0-60.8 48.192-110.080 107.605-110.080h746.261c59.456 0 107.627 49.301 107.627 110.080v716.075c0 60.779-48.171 110.101-107.627 110.101zM734.763 263.701c-26.261-226.496-185.301-225.579-192.405-225.579-149.184 0-193.344 202.795-202.517 334.336-29.568 7.211-70.72 54.763-97.664 96.149-13.461 20.757-28.843 66.475-35.029 114.155-5.376 41.237-4.736 153.237 2.517 160.683 18.837 64.683 78.443 112 149.205 112h74.475c33.109 0 109.525-13.461 139.541-69.547 34.197-73.728 15.851-160.384 15.851-160.384-10.197-136.64-75.648-238.763-158.699-249.515 9.536-108.373 19.328-237.76 114.112-241.707 78.229-3.2 104.043 70.208 99.179 132.885-51.541 19.84-76.629 57.877-76.629 112.171 0 70.059 56.811 126.805 126.827 126.805 69.995 0 126.336-56.747 126.848-126.805 0.512-71.637-50.581-112.107-85.611-115.648z" />
<glyph unicode="&#xe646;" glyph-name="parking" d="M882.752 918.805h-745.472c-59.371 0-107.52-49.365-107.52-110.272v-717.163c0-60.885 48.149-110.293 107.52-110.293h745.472c59.371 0 107.499 49.387 107.499 110.293v717.163c0 60.885-48.128 110.272-107.499 110.272zM692.096 441.152c-36.949-36.267-96.256-54.464-177.792-54.464h-141.461v-263.936h-100.352v651.413h235.008c37.056 0 69.077-1.941 95.829-5.781 26.731-3.819 51.648-13.845 74.56-29.995 22.955-16.128 40.277-38.080 52.032-65.771 11.755-27.669 17.643-56.619 17.643-86.848 0-60.139-18.453-108.373-55.467-144.619zM566.677 679.936c-16.32 4.288-40.512 6.443-72.555 6.443h-121.28v-204.395h122.773c85.995 0 129.067 34.816 129.067 104.491 0 22.891-5.589 43.115-16.811 60.693-11.157 17.536-24.917 28.459-41.195 32.768z" />
<glyph unicode="&#xe647;" glyph-name="activity" d="M886.251 930.731h-748.971c-59.627 0-108.011-49.621-108.011-110.805v-720.512c0-61.184 48.363-110.784 108.011-110.784h748.971c59.669 0 108.011 49.6 108.011 110.784v720.512c-0.021 61.184-48.341 110.805-108.011 110.805zM842.859 104.448c-122.581-122.624-333.163-110.933-470.229 26.155-117.269 117.291-142.72 288.256-70.912 412.032l-211.904 211.904c-32.149 32.171-25.045 71.168 3.392 99.605 28.459 28.437 67.456 35.563 99.605 3.371l216.576-215.957c123.712 71.787 262.123 64.128 370.859-25.877 0.853-0.704-25.6-8.875-49.899-33.365-19.883-20.053-37.589-40.789-40.32-99.157-2.944-63.317 40.896-127.659 96.192-146.453 59.627-20.267 119.829-2.816 147.968 20.8 21.12-101.952-17.813-179.52-91.328-253.056zM841.344 371.264c-58.965 0-106.752 47.787-106.752 106.773s47.787 106.795 106.752 106.795c59.029 0 106.816-47.829 106.816-106.795s-47.808-106.773-106.816-106.773z" />
<glyph unicode="&#xe648;" glyph-name="park" d="M884.267 915.904h-747.243c-59.52 0-107.755-49.109-107.755-109.675v-713.195c0-60.565 48.256-109.675 107.755-109.675h747.243c59.52 0 107.733 49.109 107.733 109.675v713.195c0 60.565-48.213 109.675-107.733 109.675zM868.949 670.955c-118.016-58.325-158.635-133.867-194.411-200.448-23.381-43.627-45.739-84.864-85.824-115.413-44.949-34.304-105.472-50.283-190.656-50.283-32.555 0-68.736 2.347-109.205 7.168-18.368-66.176 55.381-139.499 93.248-171.925l-6.912 10.283c0 0 9.557 20.928 18.133 36.843 20.459 38.187 32.469 44.821 61.12 48.128 18.347 2.667 36.096 2.709 52.907 1.131 1.963-0.192 3.008-0.32 3.072-0.32 81.792-9.131 140.373-59.84 140.373-59.84-43.179 64.021-134.507 92.224-216.768 77.333 17.259 16.491 35.221 29.013 53.419 37.269 20.544 9.216 41.6 13.291 62.592 11.861 44.672-2.987 87.851-30.635 118.421-75.797 24.661-36.693 36.608-78.421 31.915-112.043-0.341-2.432-2.112-4.651-4.885-5.888-2.688-1.195-5.888-1.088-8.448 0.235-45.632 22.677-82.773 19.712-115.413 17.173-21.568-1.728-41.813-3.371-61.547 2.197-21.888 6.357-39.872 20.843-56.555 45.397-6.315 9.472-12.501 20.416-18.539 32.981-35.84-9.344-48.661-60.971-50.453-68.907 11.157-9.493 18.837-15.061 18.837-15.061h-46.059c0 0-41.28 45.739-71.211 82.88-71.765 89.323-73.429 121.237-44.587 180.565 16.981 38.891 39.787 73.237 65.941 103.509 2.944 3.499 4.715 5.355 4.757 5.461 13.888 15.531 28.587 29.973 43.904 43.349 10.965 9.579 143.296 21.269 154.624 29.781 9.963 7.467-101.056 11.883-90.859 18.581 112.939 74.731 229.248 101.227 229.248 101.227-142.528 0-272.96-58.005-366.059-146.965-10.219-9.792-33.195 78.357-42.475 67.925-9.259-10.496-4.843-119.552-13.056-130.581-24.981-33.557-45.291-69.803-59.883-107.925-20.117 54.784-29.056 105.621-26.581 151.616 2.816 51.627 19.925 97.472 50.837 136.192 65.771 82.304 193.301 129.536 349.568 129.536 126.592 0 249.92-31.36 330.091-83.904v0.021c6.208-4.032 9.749-10.539 9.173-17.28-0.704-6.72-4.992-12.757-11.797-16.064z" />
<glyph unicode="&#xe649;" glyph-name="all" d="M888.363 950.955h-752.725c-23.317 0-42.219-18.901-42.219-42.219v-348.736h90.56v254.656c0 18.411 14.933 33.344 33.344 33.344l358.677-1.643v-334.357l96 69.333 96-69.333v333.483l41.301-0.192c18.389 0 33.344-14.912 33.344-33.344v-727.957c0-18.368-14.933-33.344-33.344-33.344h-233.301l-16.683-105.621h329.045c23.296 0 42.219 18.859 42.219 42.219v921.515c-0.021 23.296-18.944 42.197-42.219 42.197zM72-64h408v576h-408v-576zM160 408h224v-136h-224v136zM160 168h224v-136h-224v136zM256 352h32v-32h-32v32zM256 112h32v-32h-32v32z" />
<glyph unicode="&#xe64a;" glyph-name="clean" d="M896 855.125h-275.264l-18.965 56.875h-179.563l-18.944-56.875h-275.264v-55.125h768zM130.667 16h762.667v712h-762.667v-712zM648 664h184v-591.979h-184v591.979zM400 664h184v-591.979h-184v591.979zM192 664h154.667v-591.979h-154.667v591.979z" />
<glyph unicode="&#xe672;" glyph-name="leftrotation" d="M147.968 594.176c35.392 130.261 179.115 296.725 392.725 289.408 253.483-8.661 473.152-205.952 459.2-459.179-4.864-88.085-31.424-234.517-174.016-320.107-169.195-101.547-323.861-91.861-323.861-91.861s136.768 32.64 222.336 135.339c72.512 87.040 96.683 178.859 95.083 276.629-2.517 153.92-124.8 278.293-278.741 278.741-117.888 0.341-181.76-59.285-212.501-113.536l161.195-4.053-247.104-286.421-218.795 298.197 124.48-3.157z" />
<glyph unicode="&#xe673;" glyph-name="rightrotation" d="M876.032 594.176c-35.392 130.261-179.115 296.725-392.747 289.408-253.461-8.661-473.131-205.952-459.179-459.179 4.843-88.085 31.403-234.539 174.016-320.107 169.195-101.547 323.883-91.861 323.883-91.861s-136.768 32.64-222.357 135.339c-72.512 87.040-96.683 178.859-95.083 276.629 2.517 153.92 124.8 278.293 278.741 278.741 117.909 0.341 181.76-59.285 212.501-113.536l-161.195-4.053 247.083-286.379 218.816 298.155-124.48-3.157z" />
<glyph unicode="&#xe674;" glyph-name="joinbig" d="M419.627 264.213c0.384-17.088-7.744-30.784-13.248-37.781 6.699 7.211 20.011 18.923 32.448 15.979l-19.2 21.803zM457.984 220.843c4.885-15.296 0.96-30.592 0.96-30.592l-18.944-22.251 16-16c0 0 21.653-32.341 40-16 18.027 15.872 8 24 8 24l-46.016 60.843zM512 950.592c-277.589 0-502.592-225.024-502.592-502.592s225.003-502.592 502.592-502.592c277.568 0 502.592 225.024 502.592 502.592s-225.024 502.592-502.592 502.592zM696.491 256.64c-21.888-18.219-50.304 1.067-50.304 1.067s20.117-26.475-5.824-47.147c-26.347-20.971-46.336-8.832-46.336-8.832s8.747-26.389-10.027-41.728c-25.451-20.608-59.52-6.208-59.52-6.208s3.115-17.365-15.424-34.325c-28.032-25.579-77.803 20.16-77.803 20.16l-4.309 4.715-9.856-14.080-71.104 8.64-10.219 36.864-37.952 14.187-7.381 38.528-35.925 28.907-5.44 43.157c0 0-21.461 8.555-32.811 27.541-10.901 18.283 7.403 27.605 7.403 27.605l13.824-8.32-150.229 179.968 24.747 16.661 176-208c12.416 9.216 32.043 28.096 48.683 9.067 26.795-30.677 9.195-52.949 9.195-52.949s18.347 12.736 35.84 15.040l-16.448 18.603 18.731 18.24c0 0 31.957-40 32-40l104-128c0 0 21.077-14.912 40 0 17.451 13.781 8 32 8 32l-144 168 16 16 144-168c0 0 18.027-9.28 40 8 22.784 17.941 7.061 32.597 7.061 32.597l-144.32 162.347 17.259 13.035 144-160c0 0 16-16 40 0 14.869 9.92-0.363 26.688-0.363 26.688l-167.68 191.253c-29.397-26.795-107.435-92.011-143.744-62.485-36.48 29.589 63.936 119.509 115.776 159.787l116.011-59.243c0 0 44.523-26.411 56 8 8 24-32 48-32 48s-164.245 106.539-200 120c-46.123 17.387-208 8-208 8l-0.32 20.395c0 0 174.379 11.392 220.267-5.611 38.848-14.4 124.053-70.763 124.053-70.763s8 16 75.051 55.253c47.723 27.947 85.845 13.013 140.949-15.253l112-144-189.995-257.088c5.995-12.331 9.472-30.4-9.515-46.272z" />
<glyph unicode="&#xe675;" glyph-name="memberfilebig" d="M224.448 675.989h114.027v-57.003h-114.027v57.003zM512 953.237c-279.061 0-505.237-226.197-505.237-505.237 0-279.019 226.176-505.237 505.237-505.237 278.997 0 505.237 226.219 505.237 505.237 0 279.040-226.24 505.237-505.237 505.237zM480.896 789.952h170.987c15.723 0 28.544-12.821 28.544-28.48v-200.555c-17.728 5.205-30.741 2.965-54.677 3.989-48.811-2.517-89.152-37.696-97.003-69.76-17.515-71.787 19.989-157.632 19.989-157.632s5.44-39.936-39.189-58.368c-44.565-18.496-56.683-17.813-56.683-17.813l-0.427 500.139c0 15.68 12.843 28.48 28.459 28.48zM395.435 134.571c0-15.701-12.821-28.523-28.459-28.523h-171.008c-15.659 0-28.501 12.821-28.501 28.523v626.901c0 15.659 12.843 28.48 28.501 28.48h170.987c15.659 0 28.459-12.821 28.459-28.48v-626.901zM856.469 128.363c0-0.064 0-0.064 0-0.064 0-11.136-9.024-20.181-20.181-20.181h-390.677c-11.179 0-20.203 9.045-20.203 20.181 0 0 0 0 0 0.064h-0.043c0 0 0 73.621 53.824 100.373 34.048 16.96 20.949 3.179 62.72 20.544 41.835 17.323 51.691 23.36 51.691 23.36l0.448 39.936c0 0-15.68 11.925-20.544 49.515-9.792-2.88-13.013 11.499-13.632 20.587-0.491 8.853-5.653 36.373 6.315 33.856-2.453 18.368-4.224 34.987-3.371 43.819 3.008 30.784 32.683 62.997 78.443 65.344 53.803-2.325 75.115-34.517 78.101-65.344 0.896-8.789-1.067-25.387-3.477-43.776 11.947 2.475 6.763-24.981 6.165-33.856-0.512-9.088-3.861-23.424-13.611-20.587-4.885-37.547-20.544-49.344-20.544-49.344l0.363-39.723c0 0 9.941-5.696 51.712-23.019 41.813-17.365 28.693-4.352 62.763-21.312 53.76-26.752 53.76-100.373 53.739-100.373v0zM509.44 675.989h113.984v-57.003h-113.984v57.003z" />
<glyph unicode="&#xe676;" glyph-name="sound" d="M38.549 579.541v-260.992c0-18.283 15.552-33.088 34.688-33.088h117.589v327.104h-117.589c-19.157 0-34.688-14.805-34.688-33.024zM573.461 803.115c-7.253 1.344-16.064-1.963-16.064-1.963l-318.059-188.587v-327.104l318.763-190.635c0 0 8.683-4.011 16.533-1.344 14.464 4.8 14.464 15.808 14.464 15.808v677.397c0 0-0.469 13.675-15.637 16.427zM645.547 787.883v-48.555c160.917 0 291.371-130.411 291.371-291.328 0-160.896-130.453-291.328-291.371-291.328v-48.555c187.733 0 339.925 152.171 339.925 339.883s-152.192 339.883-339.925 339.883zM859.477 448c0-117.568-95.317-212.864-212.864-212.864v-35.477c137.152 0 248.341 111.211 248.341 248.341 0 137.152-111.189 248.363-248.341 248.363v-35.477c117.547 0 212.864-95.339 212.864-212.885zM799.445 448c0 88.832-65.173 154.368-153.984 154.368v-34.048c69.504-7.211 114.24-44.181 114.24-120.32s-59.776-122.112-114.24-119.339v-35.008c88.811 0 153.984 65.515 153.984 154.347z" />
<glyph unicode="&#xe677;" glyph-name="voice" d="M816.448 459.989v-17.707c0-137.536-164.075-250.219-301.589-250.219h-1.045c-137.536 0-302.997 112.661-302.997 250.219v17.707h-69.632v-18.219c0-172.011 172.757-294.741 334.592-311.147v-110.187h-155.776v-72.448h384v72.448h-155.776v109.973c162.048 15.765 334.592 138.816 334.592 311.36v18.219h-66.368zM511.765 267.989h0.896c117.781 0 237.781 95.509 237.781 213.333v253.333c0 117.824-120 213.333-237.781 213.333h-0.896c-117.824 0-238.229-95.509-238.229-213.333v-253.333c0-117.824 120.405-213.333 238.229-213.333z" />
<glyph unicode="&#xe900;" glyph-name="research" d="M512.043 951.189c-277.952 0-503.232-225.301-503.232-503.168 0-277.909 225.28-503.211 503.232-503.211 277.867 0 503.147 225.301 503.147 503.211 0 277.867-225.28 503.168-503.147 503.168zM712.747 77.525c-16.853-11.072-39.467-4.971-50.261 13.504l-61.824 113.152c-6.848 11.797-75.243 8.043-112.96 15.851-84.075 17.451-138.112 99.797-120.661 183.851 17.451 84.096 99.755 138.112 183.851 120.661 84.053-17.429 138.112-99.755 120.661-183.851-7.829-37.717-38.485-98.965-30.4-109.931l79.232-101.76c12.629-17.259 9.216-40.427-7.637-51.477zM759.189 170.752c0-11.349-7.147-20.928-17.131-24.811l-54.059 70.059c-10.581 14.336 23.659 58.411 33.92 107.627 22.741 109.845-47.787 217.344-157.589 240.085-109.803 22.784-217.28-47.744-240.064-157.589-22.763-109.739 47.765-217.237 157.568-240.043 49.237-10.197 101.163 9.323 110.165-6.080l9.259-16h-296.768c-14.763 0-26.752 11.989-26.752 26.752v533.248c0 14.763 11.989 26.752 26.752 26.752h311.765v-99.605c0-17.024 13.781-30.784 30.784-30.784h112.149v-429.611zM657.173 616c-11.328 0-20.523 9.173-20.523 20.523v94.827l123.349-115.349h-102.827zM622.955 372.267c0-57.249-46.41-103.659-103.659-103.659s-103.659 46.41-103.659 103.659c0 57.249 46.41 103.659 103.659 103.659s103.659-46.41 103.659-103.659z" />
<glyph unicode="&#xe901;" glyph-name="functional" d="M562.411 437.333l11.541 26.667h-110.784l11.563-26.667zM426.731 224l-11.563-34.667h206.784l-11.541 34.667zM439.168 245.333h158.784l-8.832 31.979h-135.701zM610.411 541.333l11.541 34.667h-206.784l11.563-34.667zM597.952 520h-158.784l14.272-26.667h135.68zM512.043 951.189c-277.952 0-503.232-225.301-503.232-503.168 0-277.909 225.28-503.211 503.232-503.211 277.867 0 503.147 225.301 503.147 503.211 0 277.867-225.28 503.168-503.147 503.168zM759.189 170.752c0-14.763-11.989-26.752-26.752-26.752h-427.947c-14.763 0-26.752 11.989-26.752 26.752v533.248c0 14.763 11.989 26.752 26.752 26.752h311.765v-99.605c0-17.024 13.781-30.784 30.784-30.784h112.149v-429.611zM657.173 616c-11.328 0-20.523 9.173-20.523 20.523v94.827l123.349-115.349h-102.827zM474.731 325.333l-11.563-24h110.784l-11.541 24zM667.797 569.579l1.323 6.421h-34.923l-0.875-4.288c-0.341-1.643-33.451-163.712-114.752-163.712s-114.453 162.069-114.773 163.712l-0.853 4.288h-34.944l1.344-6.421c1.344-6.379 32.171-149.333 110.635-186.901-78.464-37.589-109.312-180.523-110.635-186.901l-1.344-6.443h34.944l0.853 4.288c0.32 1.643 33.472 163.712 114.773 163.712s114.432-162.069 114.752-163.712l0.875-4.288h34.923l-1.344 6.443c-1.344 6.379-32.171 149.312-110.635 186.901 78.485 37.568 109.312 180.501 110.656 186.901z" />
<glyph unicode="&#xe902;" glyph-name="qrcode" d="M752.853 689.856h-162.112v-162.091h162.112v162.091zM707.584 573.056h-71.552v71.531h71.552v-71.531zM433.344 689.856h-162.091v-162.091h162.091v162.091zM388.075 573.056h-71.531v71.531h71.531v-71.531zM433.259 368.213h-162.091v-162.091h162.091v162.091zM387.989 251.413h-71.552v71.552h71.552v-71.552zM512.043 951.189c-277.952 0-503.232-225.301-503.232-503.168 0-277.909 225.28-503.211 503.232-503.211 277.867 0 503.147 225.301 503.147 503.211 0 277.867-225.28 503.168-503.147 503.168zM481.259 158.144h-258.091v258.091h258.091v-258.091zM481.344 479.765h-258.048v258.091h258.069v-258.091zM800.789 312.171l-71.765-0.021v-71.552h71.787v-82.325h-145.685l-0.277 153.941h-71.531l0.277-153.941h-40.427v257.963h92.629v-71.467h71.552v71.467h93.461v-104.064zM800.832 479.765h-258.091v258.091h258.091v-258.091z" />
<glyph unicode="&#xe903;" glyph-name="onlinesigning" d="M512.043 951.189c-277.952 0-503.232-225.301-503.232-503.168 0-277.909 225.28-503.211 503.232-503.211 277.867 0 503.147 225.301 503.147 503.211 0 277.867-225.28 503.168-503.147 503.168zM578.24 736l123.371-115.328h-102.827c-11.328 0-20.544 9.173-20.544 20.501v94.827zM705.451 175.424c0-14.763-12.011-26.752-26.752-26.752h-427.947c-14.763 0-26.752 11.989-26.752 26.752v533.248c0 14.763 11.989 26.752 26.752 26.752h311.765v-99.605c0-17.024 13.781-30.784 30.784-30.784h112.171v-15.829c0 0-39.211-75.691-39.211-72.533 0 17.664-14.336 32-32 32h-344c-17.685 0-32-14.336-32-32s14.315-32 32-32h343.979c3.093 0 5.952 0.576 8.789 1.365l-49.301-81.365h-303.467c-17.685 0-32-14.336-32-32s14.315-32 32-32h264.747l-48.747-72c0 0-36.139-37.589-64-32-38.635 7.723-63.616 48.107-83.115 48.107-15.317 0-78.016-65.707-78.016-78.016 0-12.288 16.917-22.357 27.861-16.704 15.851 8.192 32 45.035 55.723 44.587 22.677-0.448 36.971-45.952 77.547-45.952 24 0 49.003 38.805 88-8 40-48 128 40 128 40l48 80-0.811-125.269zM718.827 467.392c33.92-20.523 38.507-32 38.507-32l-117.952-194.944c0 0-60.907-62.571-86.464-47.104-33.92 20.523 1.664 98.389 1.664 98.389l118.037 194.944c0 0 8.085 3.797 46.208-19.285zM862.336 551.381l-117.995-194.965c-2.88-4.693-8.96-6.187-13.632-3.349s-6.165 8.917-3.371 13.611l117.995 194.944c2.88 4.672 8.96 6.187 13.632 3.349 4.693-2.816 6.208-8.939 3.371-13.589zM862.549 609.131l-87.211-144.107c0 0-9.536 13.013-39.211 30.976-29.632 17.941-45.589 20.352-45.589 20.352l87.211 144.085c0 0 12.843 21.184 55.253-4.48 42.368-25.621 29.547-46.827 29.547-46.827z" />
<glyph unicode="&#xe904;" glyph-name="diagnosisbig" d="M512.043 951.189c-277.952 0-503.232-225.301-503.232-503.168 0-277.909 225.28-503.211 503.232-503.211 277.867 0 503.147 225.301 503.147 503.211 0 277.867-225.28 503.168-503.147 503.168zM482.645 698.453c0 17.301 14.016 31.317 31.296 31.317h72.427c17.301 0 31.339-14.016 31.339-31.317v-115.477h115.456c17.301 0 31.339-14.016 31.339-31.339v-72.427c0-17.301-14.037-31.317-31.339-31.317h-115.456v-115.456c0-17.301-14.037-31.339-31.339-31.339h-72.427c-17.301 0-31.296 14.037-31.296 31.339v115.456h-115.499c-17.301 0-31.296 14.016-31.296 31.317v72.427c0 17.323 14.016 31.339 31.296 31.339h115.499v115.477zM571.84 110.464c-2.432-0.341-4.885-0.533-7.36-0.832-4.629-0.448-9.259-0.917-13.931-1.216-8.213-0.533-16.427-0.917-24.768-0.917-202.645 0-366.933 164.245-366.933 366.912 0 55.637 12.437 108.352 34.667 155.563 8.405 17.792 21.44 38.805 30.891 53.184l-43.669 30.741 249.045 74.581v-0.811l-113.472-161.323c-2.837-5.611-6.123-12.075-10.091-19.904-23.296-38.528-36.693-83.712-36.693-132.053 0-141.525 114.731-256.235 256.256-256.235 5.632 0 11.221 0.213 16.768 0.576 1.963 0.085 3.84 0.384 5.781 0.533 3.541 0.299 7.168 0.576 10.688 1.045 2.219 0.299 4.459 0.704 6.677 1.088 3.136 0.491 6.357 1.003 9.451 1.579 2.325 0.448 4.587 1.003 6.848 1.493 3.029 0.704 6.037 1.365 9.024 2.176 2.219 0.576 4.395 1.259 6.613 1.92 3.008 0.875 5.995 1.707 8.96 2.709 2.048 0.704 4.032 1.451 6.037 2.219 3.115 1.088 6.208 2.24 9.259 3.456 1.749 0.704 3.456 1.451 5.184 2.219 3.349 1.451 6.656 2.923 9.877 4.501 1.365 0.661 2.667 1.344 3.989 1.963 2.624 1.365 5.163 2.752 7.765 4.16 0.896 0.576 8.896 5.504 20.096 12.245 30.613 20.757 56.512 47.915 75.797 79.552l120.533-6.635c-47.829-123.2-158.208-208.533-293.291-224.491z" />
<glyph unicode="&#xe905;" d="M409.771 253.333c0 0-29.12-62.187-63.872-94.251-42.325-39.061-85.717-44.779-117.248-48.021-35.349-3.627-150.827-19.989-150.827-19.989l23.787 244.139c0 0 13.867 167.723 119.68 263.829 60.629 55.019 94.677 120.171 143.808 103.787 32.747-10.901 45.952-147.776 45.952-147.776l-0.021-7.040h35.179l0.235 39.787c0 0-38.699 154.603-59.541 159.765-48.917 12.16-97.813-39.104-171.627-106.176-128.981-117.099-145.877-321.515-145.877-321.515l-17.835-258.965c0 0 129.536 10.432 172.672 14.869 38.379 3.968 91.264 10.923 142.891 58.539 42.283 39.040 77.397 109.163 77.397 109.163l0.832 145.771h-35.008l-0.576-135.915z" />
<glyph unicode="&#xe906;" d="M954.581 319.915c0 0-16.896 204.416-145.877 321.515-73.835 67.051-122.709 118.336-171.648 106.176-20.843-5.163-59.541-159.765-59.541-159.765l0.235-39.787h35.179l-0.021 7.040c0 0 13.205 136.875 45.952 147.776 49.131 16.384 83.157-48.768 143.808-103.787 105.813-96.107 119.659-263.829 119.659-263.829l23.787-244.139c0 0-115.456 16.363-150.805 19.989-31.552 3.243-74.923 8.96-117.248 48.021-34.752 32.064-63.872 94.251-63.872 94.251l-0.555 135.936h-35.029l0.853-145.771c0 0 35.115-70.123 77.397-109.163 51.627-47.616 104.512-54.592 142.891-58.539 43.115-4.437 172.672-14.869 172.672-14.869l-17.835 258.944z" />
<glyph unicode="&#xe907;" d="M332.011 436.523c0 0-53.205 2.325-68.096 11.157-7.339 4.373-22.315 30.379-22.315 30.379s-4.821 0.235-8.939-5.44c-4.843-6.699-0.363-12.651-0.363-12.651s16.725-26.645 22.699-30.016c12.821-7.253 58.048-9.792 58.048-9.792l-136.704-115.499 16.128-24.064 302.016 250.069 0.747 303.552-30.741 0.107 0.619-285.931-133.099-111.872z" />
<glyph unicode="&#xe908;" d="M830.869 281.344l16.128 24.043-136.704 115.52c0 0 45.248 2.539 58.069 9.792 5.973 3.371 22.677 29.995 22.677 29.995s4.48 5.952-0.384 12.651c-4.096 5.675-8.917 5.44-8.917 5.44s-14.976-26.005-22.336-30.379c-14.912-8.832-68.096-11.157-68.096-11.157l-133.077 111.872 0.597 285.931-30.72-0.107 0.725-303.552 302.037-250.048z" />
<glyph unicode="&#xe909;" d="M698.709 278.059c-9.109-15.424-4.693-44.011-4.693-44.011s1.152-7.403 9.024-8.448c6.869-0.939 8.661 4.949 8.661 4.949s-0.704 27.541 3.605 34.453c4.267 6.741 30.72 20.288 30.72 20.288l87.957-69.824 17.344 24.064-338.155 274.005-339.115-274.517 17.344-24.021 87.957 69.781c0 0 26.475-13.504 30.72-20.267 4.331-6.933 3.605-34.475 3.605-34.475s1.792-5.845 8.683-4.907c7.893 1.067 9.024 8.448 9.024 8.448s4.416 28.565-4.693 43.968c-9.067 15.253-27.008 24.789-27.008 24.789l213.333 174.592 212.693-174.080c0 0-17.92-9.536-27.008-24.789z" />
<glyph unicode="&#xe90a;" glyph-name="diagnosis" d="M845.867 295.275c-27.669-45.461-64.832-84.373-108.8-114.176-16.043-9.728-27.584-16.768-28.843-17.579-3.712-2.048-7.381-4.075-11.2-5.995-1.835-0.939-3.712-1.856-5.632-2.795-4.672-2.24-9.408-4.416-14.208-6.464-2.496-1.067-4.949-2.176-7.467-3.179-4.373-1.749-8.832-3.392-13.248-5.013-2.88-1.067-5.76-2.133-8.704-3.115-4.245-1.429-8.533-2.667-12.885-3.947-3.157-0.896-6.251-1.92-9.451-2.731-4.245-1.152-8.576-2.091-12.949-3.115-3.243-0.704-6.507-1.515-9.835-2.176-4.459-0.853-9.045-1.515-13.547-2.24-3.2-0.491-6.421-1.109-9.621-1.515-5.035-0.683-10.219-1.109-15.381-1.536-2.752-0.256-5.461-0.619-8.299-0.789-7.957-0.512-16-0.768-24.043-0.768-203.136 0-367.851 164.629-367.851 367.765 0 69.376 19.264 134.251 52.693 189.568 5.675 11.179 10.389 20.48 14.485 28.565l162.88 231.552v1.152l-357.483-107.051 62.677-44.096c-13.547-20.693-32.277-50.816-44.331-76.395-31.893-67.755-49.771-143.381-49.771-223.253 0-290.901 235.84-526.677 526.699-526.677 11.968 0 23.808 0.491 35.563 1.323 6.699 0.427 13.333 1.109 20.011 1.728 3.541 0.405 7.040 0.725 10.539 1.173 193.92 22.891 352.341 145.408 421.035 322.24l-173.035 9.536zM259.136 596.8v-103.936c0-24.832 20.117-44.949 44.949-44.949h165.76v-165.76c0-24.811 20.117-44.949 44.949-44.949h103.936c24.832 0 44.949 20.139 44.949 44.949v165.76h165.781c24.832 0 44.907 20.117 44.907 44.949v103.936c0 24.832-20.075 44.949-44.907 44.949h-165.781v165.781c0 24.811-20.117 44.928-44.949 44.928h-103.936c-24.832 0-44.949-20.117-44.949-44.928v-165.781h-165.76c-24.811 0-44.949-20.117-44.949-44.949z" />
<glyph unicode="&#xe90b;" glyph-name="droplet" d="M864.626 486.838c-65.754 183.44-205.11 348.15-352.626 473.162-147.516-125.012-286.87-289.722-352.626-473.162-40.664-113.436-44.682-236.562 12.584-345.4 65.846-125.14 198.632-205.438 340.042-205.438s274.196 80.298 340.040 205.44c57.27 108.838 53.25 231.962 12.586 345.398zM738.764 201.044c-43.802-83.252-132.812-137.044-226.764-137.044-55.12 0-108.524 18.536-152.112 50.652 13.242-1.724 26.632-2.652 40.112-2.652 117.426 0 228.668 67.214 283.402 171.242 44.878 85.292 40.978 173.848 23.882 244.338 14.558-28.15 26.906-56.198 36.848-83.932 22.606-63.062 40.024-156.34-5.368-242.604z" />
<glyph unicode="&#xe90c;" glyph-name="consultdoctor" d="M601.92 204.288h-367.616c-95.979 0.299-136.128 99.072-136.128 137.216v389.013c0 18.752 3.733 36.565 10.56 52.779-56.747-16.427-98.283-68.693-98.283-130.688v-338.389c0-73.088 83.904-191.787 191.765-191.851h17.984l-28.352-118.251c0 0-12.288-46.101-0.341-46.101 11.925 0 54.485 46.101 54.485 46.101l102.72 118.251h326.891l-46.528 81.941h-27.157zM876.587 937.771l-80.085 0.235-517.248-0.235c-75.691 0-137.003-61.312-137.003-136.96v-415.424c0-75.648 60.48-137.195 136.149-137.195h394.795l75.648-119.040c0 0 33.493-46.357 45.547-46.357 11.989 0 8.939 46.357 8.939 46.357l-0.704 119.040h74.88c75.563 0 136.064 61.269 136.064 136.981v415.637c-0.021 75.648-61.291 136.96-136.981 136.96zM965.973 442.496l0.149-27.392c0-67.328-55.488-122.773-122.709-122.773l-544.576 0.192c-67.221 0-109.035 55.253-109.035 122.581l0.064 27.563h0.149v300.949h-0.149l-0.085 25.493c0 67.307 48.619 115.691 115.861 115.691h28.011v-0.043l516.544 0.043c67.179 0 115.904-48.384 115.904-115.691l-0.149-25.493h-0.128v-301.099h0.149zM734.763 442.837c34.539 0 62.421 27.989 62.421 62.507 0 34.432-27.883 62.4-62.421 62.4-34.517 0-62.443-27.968-62.443-62.4 0.021-34.539 27.925-62.507 62.443-62.507zM734.763 533.077c13.589 0 24.576-11.051 24.576-24.597 0-13.611-11.008-24.555-24.576-24.555-13.653 0-24.512 10.965-24.512 24.555 0 13.568 10.88 24.597 24.512 24.597zM798.080 471.168c-9.28-24.533-39.851-39.339-62.293-38.315-8.213-61.184-40.768-105.067-98.091-106.965-61.461-2.027-86.592 38.293-91.307 105.941-15.189 3.648-40.853 26.325-54.805 47.637-5.035 7.808-14.549 24.661-21.781 42.837-9.365-4.117-21.141-9.237-35.947-15.296-56.235-23.317-38.571-4.864-84.373-27.691-72.363-35.947-72.363-134.976-72.363-134.976 0-0.043 0-0.043 0-0.043 0-14.955 12.181-27.2 27.157-27.2h525.589c15.019 0 27.179 12.245 27.179 27.2 0 0 0 0 0 0.043v0c0.043 0.021 7.957 88.683-58.965 126.827zM657.408 526.357c-18.859-47.616-50.197-93.333-78.464-93.952 4.864-55.68 19.733-78.997 55.531-78.997 34.112 0 61.888 33.173 68.8 85.739-24.555 9.323-39.616 32.213-39.616 60.096 0 7.915 1.6 15.467 4.203 22.613-3.883 1.6-7.275 3.157-10.453 4.501zM476.352 658.709c6.549-50.517 27.584-66.539 27.584-66.539l-0.491-53.739c0 0-1.173-0.725-3.947-2.197 10.709-43.371 35.84-78.144 65.408-78.144 30.101 0 55.723 36.075 66.112 80.747-0.171 0.107-0.299 0.128-0.299 0.128l-0.491 53.44c0 0 21.099 15.936 27.627 66.432 13.184-3.84 17.536 15.424 18.261 27.691 0.875 11.861 7.765 48.811-8.277 45.525 3.328 24.683 5.867 47.019 4.693 58.816-2.475 26.219-10.048 49.792-37.077 66.88-32.469-10.325-39.424 12.032-70.549 12.032-30.784 0-32.341-20.096-61.035-12.181-26.709-17.131-39.36-41.024-41.899-66.773-1.152-11.84 1.259-34.091 4.523-58.837-16.064 3.349-9.131-33.685-8.448-45.547 0.811-12.224 5.141-31.531 18.304-27.733z" />
<glyph unicode="&#xe90d;" glyph-name="consult-doctor2" d="M602.837 201.813h-371.328c-96.981 0.32-137.536 100.096-137.536 138.603v392.981c0 18.923 3.776 36.907 10.645 53.291-57.344-16.576-99.285-69.376-99.285-132.032v-341.781c0-73.813 84.757-193.749 193.749-193.813h18.133l-28.629-119.467c0 0-12.416-46.592-0.32-46.592 12.032 0 54.997 46.592 54.997 46.592l103.808 119.467h330.219l-46.997 82.773h-27.456zM880.299 942.784l-80.875 0.213-522.539-0.213c-76.459 0-138.411-61.931-138.411-138.368v-419.669c0-76.352 61.12-138.581 137.557-138.581h398.869l76.416-120.213c0 0 33.792-46.869 45.909-46.869 12.16 0 9.088 46.869 9.088 46.869l-0.747 120.213h75.669c76.373 0 137.451 61.909 137.451 138.368v419.883c-0.021 76.437-61.931 138.368-138.389 138.368zM970.624 442.453l0.128-27.691c0-67.989-56.085-124.011-123.925-124.011l-550.187 0.213c-67.925 0-110.165 55.829-110.165 123.819l0.107 27.861h0.171v304h-0.171l-0.107 25.728c0 68.011 49.109 116.885 117.056 116.885h28.288v-0.043l521.856 0.064c67.925 0 117.077-48.896 117.077-116.885l-0.128-25.749h-0.085v-304.171h0.085zM786.283 631.957c-28.672 0-53.12-19.797-59.243-47.424-12.373-6.165-27.371-16.448-33.792-31.637-6.421-15.083-5.589-34.005-4.544-55.957 1.131-23.893 2.283-50.987-6.549-76.821-6.379-18.56-34.091-57.963-79.168-61.205-39.573-2.795-58.88 34.24-65.835 52.331 3.371 6.891 4.011 13.824 4.032 14.656v45.312c69.717 16.405 101.632 87.296 103.168 90.965 0.213 0.597 1.664 5.803-0.299 12.608 8.043 13.248 13.547 24.192 16.085 29.653 15.659 33.621 44.843 131.947 20.544 164.587-10.496 14.101-29.504 23.339-47.829 32.299-5.867 2.816-11.541 5.632-16.704 8.448-3.925 2.197-7.915 5.035-11.925 8.491-4.885 11.925-16.576 19.819-29.589 19.819-17.664 0-32.043-14.357-32.043-32 0-17.707 14.379-32.064 32.043-32.064 6.080 0 12.011 1.707 17.173 4.949 3.925-0.725 7.552-1.643 10.965-2.667 18.24-5.675 36.544-16.768 45.504-27.627 16.299-19.819-4.8-90.304-19.157-121.941-5.248-11.584-9.835-20.843-14.208-28.885-12.587 0.661-19.499-8.875-20.032-9.813-0.384-0.64-38.208-67.413-82.837-67.861-46.485 0-81.301 66.069-82.155 67.52-0.213 0.32-5.333 6.805-14.165 8.917-4.587 8.32-9.493 18.197-14.891 30.101-14.4 31.616-35.52 102.123-19.179 121.941 8.939 10.859 27.285 21.952 45.547 27.627 3.349 1.024 7.040 1.941 10.965 2.667 5.163-3.243 11.029-4.949 17.109-4.949 17.685 0 32 14.357 32 32.064 0 17.643-14.315 32-32 32-12.949 0-24.683-7.893-29.611-19.819-3.989-3.456-7.979-6.336-11.925-8.491-5.163-2.816-10.859-5.632-16.683-8.448-18.347-8.96-37.333-18.197-47.829-32.299-24.277-32.64 4.885-130.965 20.587-164.587 2.133-4.587 6.613-13.717 13.248-25.045-4.8-11.819 0.427-24.064 0.597-24.448 1.152-2.965 28.928-72.171 104.427-85.035v-44.608c0.064-0.576 1.664-14.165 10.688-22.443 8.128-27.413 33.408-86.976 99.328-86.976 4.544 0 9.344 0.299 14.123 0.875 76.075 9.387 111.040 75.371 115.968 117.397 1.536 13.355 0.576 28.48-0.448 44.544-1.259 19.349-2.539 39.445 1.045 55.893 0.619 2.88 2.091 5.205 4.459 7.104 10.667-19.093 30.827-31.147 53.035-31.147 33.408 0 60.672 27.2 60.672 60.736 0 33.472-27.243 60.693-60.672 60.693z" />
<glyph unicode="&#xe90e;" glyph-name="images" horiz-adv-x="1152" d="M656.277 456.768c0-7.281-5.903-13.184-13.184-13.184s-13.184 5.903-13.184 13.184c0 7.281 5.903 13.184 13.184 13.184s13.184-5.903 13.184-13.184zM774.827 513.941v76.971h0.064l0.085 14.763c0 38.976-28.203 67.008-67.115 67.008h-16.256v-0.021l-299.115 0.021c-38.933 0-67.093-28.011-67.093-67.008l0.064-14.763h0.085v-174.251h-0.085l-0.064-15.979c0-38.955 24.213-70.955 63.147-70.955l315.371-0.128c38.912 0 71.061 32.128 71.061 71.083l-0.085 15.872h-0.064v97.387zM643.093 488.555c18.496 0 33.451-15.019 33.451-33.451 0-18.517-14.955-33.515-33.451-33.515-18.517 0-33.451 14.997-33.451 33.515-0.021 18.432 14.912 33.451 33.451 33.451zM626.219 419.584c-3.733-28.16-18.624-45.909-36.885-45.909-19.221 0-27.179 12.459-29.803 42.283 15.168 0.363 31.957 24.875 42.091 50.411 1.685-0.747 3.52-1.579 5.589-2.432-1.387-3.797-2.219-7.872-2.219-12.117-0.043-14.933 8-27.243 21.227-32.235zM499.243 576.619c-1.771 13.269-3.051 25.216-2.432 31.552 1.344 13.803 8.128 26.645 22.464 35.819 15.381-4.267 16.213 6.507 32.768 6.507 16.683 0 20.373-12.011 37.76-6.443 14.528-9.152 18.581-21.803 19.925-35.861 0.661-6.336-0.704-18.283-2.517-31.531 8.597 1.749 4.885-18.069 4.459-24.427-0.363-6.592-2.752-16.896-9.792-14.848-3.541-27.115-14.827-35.627-14.827-35.627l0.277-28.629c0 0 0.064-0.021 0.171-0.085-5.589-23.936-19.328-43.307-35.456-43.307-15.829 0-29.355 18.667-35.072 41.92 1.493 0.789 2.112 1.173 2.112 1.173l0.256 28.779c0 0-11.264 8.597-14.784 35.712-7.061-2.027-9.387 8.299-9.813 14.891-0.427 6.336-4.139 26.197 4.501 24.405zM708.651 368.768c0-0.021 0-0.021 0 0 0-8.064-6.549-14.635-14.571-14.635h-281.813c-8.043 0-14.571 6.571-14.571 14.613 0 0 0 0 0 0.021v0c0 0 0 53.099 38.784 72.384 24.576 12.267 15.104 2.347 45.248 14.848 7.957 3.243 14.251 5.995 19.285 8.192 3.883-9.771 8.939-18.773 11.669-22.976 7.467-11.477 21.227-23.573 29.376-25.557 2.517-36.245 16-57.899 48.96-56.789 30.741 1.024 48.192 24.512 52.587 57.344 12.032-0.533 28.459 7.424 33.387 20.565 35.904-20.459 31.659-68.011 31.659-68.011zM512.043 951.189c-277.952 0-503.232-225.301-503.232-503.168 0-277.909 225.28-503.211 503.232-503.211 277.867 0 503.147 225.301 503.147 503.211 0 277.867-225.28 503.168-503.147 503.168zM523.221 231.168h-105.771l-59.499-68.48c0 0-24.64-26.688-31.552-26.688-6.933 0 0.192 26.688 0.192 26.688l16.427 68.48h-10.389c-62.485 0.043-111.061 68.8-111.061 111.125v195.925c0 35.925 24.043 66.176 56.917 75.691-3.947-9.387-6.123-19.712-6.123-30.571v-225.237c0-36.949 23.253-79.296 78.827-79.467h228.608l26.923-47.467h-83.499zM802.432 581.739v-198.336c0-43.84-35.029-79.317-78.805-79.317h-43.349l0.427-68.907c0 0 1.771-26.88-5.184-26.88s-26.347 26.88-26.347 26.88l-43.797 68.907h-228.629c-43.819 0-78.848 35.648-78.848 79.445v240.533c0 43.819 35.52 79.317 79.339 79.317h46.379v0.128l299.541-0.128c43.819 0 79.317-35.499 79.317-79.317v-42.325z" />
<glyph unicode="&#xe90f;" d="M304.96 666.261c-39.189-103.147-18.581-189.781-18.581-189.781s2.709-33.365 49.515-34.539c43.499-1.088 44.992 33.387 44.992 33.387s-1.771 24.96 5.013 91.264c8.128 79.275 60.437 133.504 104.683 136.789 59.285 4.395 87.915-50.539 87.915-50.539s14.677-1.557 39.467 11.584c23.893 12.715 28.352 30.165 28.352 30.165l-40.235 47.957 84.032 137.173c0 0-6.187 20.117-57.216 1.536-31.061-11.285-55.701-12.373-55.701-12.373l-41.792-75.285-9.259 2.581-0.512 119.104c0 0-12.885 18.411-47.957 17.536-42.261-1.003-47.915-16.981-47.915-16.981l0.235-122.475c0 0-96.128-51.051-125.035-127.104z" />
<glyph unicode="&#xe910;" d="M876.309 634.304c0 0-91.627 37.483-180.224 29.355-118.336-10.816-160.128-51.819-160.128-51.819l-36.352 42.56c0 0-8.811-0.811-11.392-2.091-3.115-1.579-8.96-11.819-8.96-11.819l33.877-44.587c0 0 10.56-13.781 17.152-13.696 6.016 0.085 3.392-0.917 17.152 8.043 21.632 14.059 65.749 34.112 149.397 44.053 95.467 11.307 162.432-24 162.432-24s11.627-3.093 17.024 7.744c3.435 6.848 0.021 16.256 0.021 16.256z" />
<glyph unicode="&#xe911;" d="M861.632 569.323c0 0-110.72 27.883-201.131 10.027-58.773-11.584-115.776-49.237-115.776-49.237l-13.931-128.427 39.189-33.003-12.885-75.264c0 0-40.043-48.576-72.704-72.704-35.584-26.304-69.184-20.245-52.587-51.072 10.816-20.117 54.080 6.443 80.448 27.861 24.747 20.096 41.749 46.891 41.749 46.891l-4.651-20.608-58.752-121.195c0 0-3.819-7.104 6.187-11.861 10.816-5.163 16 1.024 16 1.024l55.68 103.659 1.536-10.325-5.675-51.051c0 0-1.024-10.816 12.395-11.328 12.544-0.491 9.493 10.304 9.493 10.304l4.907 45.355-4.629 86.165c0 0 10.859 10.304 10.859 33.515 0 50.048 2.837 53.611 2.837 53.611l20.885-11.307c0 0 12.395-1.557 17.792 5.397 7.104 9.173 0 16.256 0 16.256l-77.099 64.469 10.837 75.797c0 0 15.979 36.117 125.824 52.331 94.357 13.931 160.085-8.491 160.085-8.491s10.091-0.789 10.859 9.28c0.96 12.544-7.744 13.931-7.744 13.931z" />
<glyph unicode="&#xe912;" d="M370.965 424.917c0 0-9.344 0.576-8.277-18.56 0.896-15.744 8.277-12.352 8.277-12.352s56.555-1.216 72.896 14.464c34.347 32.96-5.867 172.715-5.867 172.715s-13.717-2.304-17.024-13.909c-6.187-21.653-6.187-29.397-6.187-29.397s22.080-81.728 0.192-105.451c-10.667-11.584-44.011-7.509-44.011-7.509z" />
<glyph unicode="&#xe913;" d="M716.971 521.344c-29.397-12.395-18.56-24.747-18.56-24.747s21.653-32.491 7.723-68.053c-22.805-58.368-34.027-80.491-34.027-80.491s23.189-86.805 10.816-150.037-60.331-102.869-80.448-123.755c-23.253-24.149-41.579-38.613-55.659-47.147-28.949-17.515-40.256-10.112-40.256-10.112s-14.357 7.147-35.413 18.624c-31.061 16.96-76.587 43.392-112.064 70.592-92.821 71.168-134.827 159.083-139.477 169.899-6.955 16.256-6.187 44.096-6.187 44.096v40.235c4.011 8.597 1.408 9.856 15.211 29.397 12.373 17.515 21.141 23.189 13.397 41.003-6.955 16.043-27.072 1.536-27.072 1.536l-13.909-5.419c0 0-17.344 2.795 2.304 60.331 14.955 43.84 38.677 67.563 38.677 67.563l-6.187 50.027c0 0-58.539-56.725-74.24-102.101-16.043-46.379-17.515-81.856-13.611-111.36 2.859-21.696 22.123-35.605 22.123-35.605s-18.261-53.909 0.768-95.936c14.955-32.981 47.957-88.171 79.936-122.709 64.405-69.589 162.517-127.744 219.115-158.016 26.901-14.379 29.184-12.928 47.744-15.253 17.664-2.219 18.731-0.853 49.301 16.597 46.208 26.347 111.829 77.995 150.016 171.093 33.365 81.365 6.165 185.643 6.165 185.643s27.883 35.584 38.677 94.379c8.149 44.224-18.56 88.149-18.56 88.149s-7.168 9.643-26.304 1.579z" />
<glyph unicode="&#xe914;" d="M325.76 782.144l-85.675 8.832-7.019-29.12 87.36-3.797z" />
<glyph unicode="&#xe915;" glyph-name="qrcode2" d="M20.949 502.037h438.933v438.955h-438.933v-438.955zM102.571 859.349h275.669v-275.669h-275.669v275.669zM179.605 782.336h121.643v-121.621h-121.643v121.621zM564.288 940.992v-438.976h438.955v438.976h-438.955zM921.664 583.68h-275.712v275.669h275.712v-275.669zM722.965 782.336h121.707v-121.621h-121.707v121.621zM20.736-44.992h438.976v438.976h-438.976v-438.976zM102.379 312.299h275.669v-275.691h-275.669v275.691zM179.392 235.307h121.685v-121.664h-121.685v121.664zM844.245 272.448h-121.664v121.536h-157.589v-438.784h68.757l-0.448 261.824h121.621l0.491-261.824h247.787v140.075h-122.069v121.664l122.069 0.043v177.003h-158.955z" />
<glyph unicode="&#xe916;" glyph-name="team" d="M762.539 287.104c-62.080 30.976-15.701 7.275-92.011 38.976-76.224 31.573-72.192 41.941-72.192 41.941l-0.619 72.448c0 0 28.587 21.632 37.461 90.133 17.963-5.12 23.936 20.907 24.875 37.568 1.067 16.128 10.603 66.283-11.2 61.824 4.395 33.493 7.915 63.744 6.293 79.829-5.44 56.235-44.373 114.987-142.549 119.275-83.413-4.288-137.664-63.083-143.104-119.317-1.643-16.085 1.579-46.293 6.080-79.851-21.781 4.523-12.437-45.739-11.477-61.845 1.067-16.597 6.976-42.752 24.832-37.568 8.875-68.587 37.461-90.389 37.461-90.389l-0.661-72.853c0 0 4.096-11.029-72.213-42.645-76.245-31.573-29.867-6.528-91.989-37.504-98.24-48.875-98.24-183.168-98.24-183.168h0.021c0-0.128 0-0.128 0-0.128 0-20.373 16.469-36.885 36.885-36.885h623.787c20.288 0 36.821 16.512 36.821 36.885 0 0 0 0 0 0.128-0.043-0.021-0.043 134.272-98.261 183.147zM242.517 321.173c39.189 24.491 18.027 14.229 25.643 42.645 14.635 7.317 24.917 25.664 26.069 57.643 12.779-3.669 16.981 15.019 17.749 26.901 0.704 11.499 7.403 47.424-8.192 44.181 3.179 24 5.483 45.611 4.331 57.088-3.904 40.213-42.645 82.219-102.315 85.291-70.165-3.051-97.984-45.056-101.888-85.269-1.131-11.477 1.387-33.109 4.565-57.045-15.616 3.157-8.811-32.661-8.064-44.16 0.683-11.925 5.035-30.549 17.771-26.901 6.357-48.96 26.773-64.427 26.773-64.427l11.136-35.904c0 0-32.085-18.667-91.157-43.179-59.093-24.491-69.355-161.131-53.611-161.131 0 0 95.552-9.899 95.552 8.192 0 0 8.811 116.821 135.637 196.075zM959.040 278.037c-59.093 24.512-91.136 43.179-91.136 43.179l11.136 35.904c0 0 20.437 15.467 26.773 64.427 12.757-3.648 17.109 14.976 17.771 26.901 0.747 11.499 7.552 47.339-8.064 44.16 3.179 23.936 5.717 45.568 4.565 57.045-3.904 40.213-31.701 82.219-101.867 85.269-59.669-3.093-98.411-45.077-102.315-85.291-1.173-11.477 1.152-33.088 4.331-57.088-15.573 3.221-8.875-32.683-8.192-44.181 0.768-11.883 4.949-30.571 17.771-26.901 1.131-31.979 11.392-50.325 26.048-57.643 7.595-28.416-13.547-18.155 25.621-42.645 126.827-79.253 135.616-196.053 135.616-196.053 0-18.091 95.552-8.192 95.552-8.192 15.744-0.021 5.483 136.619-53.611 161.109z" />
<glyph unicode="&#xe917;" glyph-name="recovery" d="M968.939 578.027l-221.013 174.144-40.021-74.88c0 0-29.184 17.941-95.061 61.483-17.344 11.477-80.085 61.12-99.349 60.267-25.664-1.109-31.253-10.048-31.253-10.048l-64.725-52.459c0 0-27.989-19.691-25.685-39.083 1.6-13.547 11.712-43.499 32.384-61.397 35.797-31.040 72.555-20.373 87.083-6.699 4.011 3.776 9.728 0.96 9.728 0.96l71.189-47.275c-11.136-4.352-32.725-15.552-45.205-18.411-125.184-28.544-226.603-37.952-226.603-37.952s-29.184 1.92-51.349 11.157c-41.173 17.131-147.349 100.48-147.349 100.48s-105.408 16.363-66.987-175.808c26.795-133.973 234.411-199.253 234.411-199.253l207.616-113.856c0 0 80.363-58.624 209.301-51.925 127.125 6.613 98.795 189.184 159.061 293.013 18.624 32.043 54.635 61.333 73.685 80.363 63.616 63.637 30.144 107.179 30.144 107.179zM294.144 290.048l12.843 223.232 94.869 7.808-65.856-251.157-41.856 20.117zM352.192 264.363l66.965 256.747 53.013 10.027-20.629-323.136-99.349 56.363zM469.952 197.931l16.747 335.424 30.144 3.349 21.781-382.315-68.672 43.541zM602.24 129.301c-46.485 12.544-46.059 17.579-46.059 17.579l-25.963 392.64 36.843 5.867 72.555-141.504 17.451-280.469c0 0-22.485-2.859-54.827 5.888zM729.493 127.595c-31.808-12.544-56.107-8.363-56.107-8.363l-11.435 245.568 100.181-203.712c0.021 0.021-5.035-22.571-32.64-33.493zM773.867 187.072c0 0-80.149 144.363-107.157 195.051-21.739 40.768-82.048 168.299-82.048 168.299l29.291 16.747c0 0 76.181-55.253 112.192-97.941 55.488-65.813 87.893-169.131 87.893-169.131l-40.171-113.024zM922.048 477.547c-7.787-9.899-36.843-34.304-36.843-34.304s-133.12 35.541-205.931 99.627c-102.165 89.835-251.712 170.219-251.712 170.219s12.821 10.603 51.328 39.061c28.715 21.227 26.219 26.795 26.219 26.795s89.856-46.891 199.253-123.904c73.877-52.011 246.144-123.072 246.144-123.072s-6.699-26.773-28.459-54.421z" />
<glyph unicode="&#xe918;" glyph-name="medicanbig" d="M613.824 394.987h-66.219v66.24c0 9.92-8.064 17.963-17.984 17.963h-41.536c-9.92 0-17.963-8.043-17.963-17.963v-66.24h-66.24c-9.92 0-17.963-8.043-17.963-17.963v-41.579c0-9.856 8.021-17.92 17.963-17.92h66.24v-66.261c0-9.92 8.043-17.963 17.963-17.963h41.536c9.92 0 17.984 8.043 17.984 17.963v66.261h66.219c9.92 0 17.963 8.064 17.963 17.92v41.579c0 9.92-8.043 17.963-17.963 17.963zM512.043 951.189c-277.952 0-503.232-225.301-503.232-503.168 0-277.909 225.28-503.211 503.232-503.211 277.867 0 503.147 225.301 503.147 503.211 0 277.867-225.28 503.168-503.147 503.168zM701.163 199.68c0-37.163-30.123-67.264-67.285-67.264h-243.776c-37.141 0-67.243 30.101-67.243 67.264v329.941c0 37.141 67.243 70.677 67.243 70.677h1.515c-1.579 20.203-5.717 75.264-5.717 96.405 0 26.133 21.163 47.296 47.275 47.296h157.653c26.091 0 47.253-21.163 47.253-47.296 0-21.12-4.075-76.181-5.675-96.405h1.451c0 0 67.285-33.536 67.285-70.677v-329.941z" />
<glyph unicode="&#xe919;" glyph-name="leftarrow2" d="M852.565 483.648v362.901h-797.099v-797.099h797.099v366.080h115.968v68.096h-115.968zM787.947 483.648h-381.952l166.357 166.336-45.888 45.888-243.52-243.499 243.712-243.456 45.888 45.867-160.725 160.747h376.085v-301.461h-667.819v667.819h667.84v-298.24z" />
<glyph unicode="&#xe91a;" glyph-name="medican" d="M714.496 717.269h-2.475c2.624 33.6 9.451 125.056 9.451 160.171 0 43.371-35.136 78.549-78.571 78.549h-261.845c-43.371 0-78.549-35.179-78.549-78.549 0-35.115 6.848-126.571 9.472-160.171h-2.496c0 0-111.723-55.68-111.723-117.397v-548.139c0-61.717 50.027-111.723 111.723-111.723h404.992c61.717 0 111.723 50.027 111.723 111.723v548.139c0.021 61.717-111.701 117.397-111.701 117.397zM711.019 277.312c0-16.448-13.376-29.803-29.845-29.803h-110.037v-110.059c0-16.469-13.355-29.845-29.845-29.845h-69.013c-16.512 0-29.845 13.376-29.845 29.845v110.059h-110.059c-16.469 0-29.824 13.376-29.824 29.803v69.035c0 16.448 13.355 29.824 29.824 29.824h110.059v110.059c0 16.469 13.333 29.845 29.845 29.845h69.013c16.491 0 29.845-13.355 29.845-29.845v-110.059h110.037c16.469 0 29.845-13.376 29.845-29.824v-69.035z" />
<glyph unicode="&#xe91b;" glyph-name="rightarrow2" d="M55.467 483.648v-68.096h115.989v-366.080h797.077v797.077h-797.099v-362.901h-115.968zM236.053 781.888h667.84v-667.819h-667.84v301.483h376.085l-160.704-160.747 45.888-45.867 243.712 243.456-243.499 243.499-45.888-45.888 166.357-166.336h-381.952v298.219z" />
<glyph unicode="&#xe91c;" glyph-name="consultdoctorbig" d="M656.277 456.768c0-7.281-5.903-13.184-13.184-13.184s-13.184 5.903-13.184 13.184c0 7.281 5.903 13.184 13.184 13.184s13.184-5.903 13.184-13.184zM774.827 513.941v76.971h0.064l0.085 14.763c0 38.976-28.203 67.008-67.115 67.008h-16.256v-0.021l-299.115 0.021c-38.933 0-67.093-28.011-67.093-67.008l0.064-14.763h0.085v-174.251h-0.085l-0.064-15.979c0-38.955 24.213-70.955 63.147-70.955l315.371-0.128c38.912 0 71.061 32.128 71.061 71.083l-0.085 15.872h-0.064v97.387zM643.093 488.555c18.496 0 33.451-15.019 33.451-33.451 0-18.517-14.955-33.515-33.451-33.515-18.517 0-33.451 14.997-33.451 33.515-0.021 18.432 14.912 33.451 33.451 33.451zM626.219 419.584c-3.733-28.16-18.624-45.909-36.885-45.909-19.221 0-27.179 12.459-29.803 42.283 15.168 0.363 31.957 24.875 42.091 50.411 1.685-0.747 3.52-1.579 5.589-2.432-1.387-3.797-2.219-7.872-2.219-12.117-0.043-14.933 8-27.243 21.227-32.235zM499.243 576.619c-1.771 13.269-3.051 25.216-2.432 31.552 1.344 13.803 8.128 26.645 22.464 35.819 15.381-4.267 16.213 6.507 32.768 6.507 16.683 0 20.373-12.011 37.76-6.443 14.528-9.152 18.581-21.803 19.925-35.861 0.661-6.336-0.704-18.283-2.517-31.531 8.597 1.749 4.885-18.069 4.459-24.427-0.363-6.592-2.752-16.896-9.792-14.848-3.541-27.115-14.827-35.627-14.827-35.627l0.277-28.629c0 0 0.064-0.021 0.171-0.085-5.589-23.936-19.328-43.307-35.456-43.307-15.829 0-29.355 18.667-35.072 41.92 1.493 0.789 2.112 1.173 2.112 1.173l0.256 28.779c0 0-11.264 8.597-14.784 35.712-7.061-2.027-9.387 8.299-9.813 14.891-0.427 6.336-4.139 26.197 4.501 24.405zM708.651 368.768c0-0.021 0-0.021 0 0 0-8.064-6.549-14.635-14.571-14.635h-281.813c-8.043 0-14.571 6.571-14.571 14.613 0 0 0 0 0 0.021v0c0 0 0 53.099 38.784 72.384 24.576 12.267 15.104 2.347 45.248 14.848 7.957 3.243 14.251 5.995 19.285 8.192 3.883-9.771 8.939-18.773 11.669-22.976 7.467-11.477 21.227-23.573 29.376-25.557 2.517-36.245 16-57.899 48.96-56.789 30.741 1.024 48.192 24.512 52.587 57.344 12.032-0.533 28.459 7.424 33.387 20.565 35.904-20.459 31.659-68.011 31.659-68.011zM512.043 951.189c-277.952 0-503.232-225.301-503.232-503.168 0-277.909 225.28-503.211 503.232-503.211 277.867 0 503.147 225.301 503.147 503.211 0 277.867-225.28 503.168-503.147 503.168zM523.221 231.168h-105.771l-59.499-68.48c0 0-24.64-26.688-31.552-26.688-6.933 0 0.192 26.688 0.192 26.688l16.427 68.48h-10.389c-62.485 0.043-111.061 68.8-111.061 111.125v195.925c0 35.925 24.043 66.176 56.917 75.691-3.947-9.387-6.123-19.712-6.123-30.571v-225.237c0-36.949 23.253-79.296 78.827-79.467h228.608l26.923-47.467h-83.499zM802.432 581.739v-198.336c0-43.84-35.029-79.317-78.805-79.317h-43.349l0.427-68.907c0 0 1.771-26.88-5.184-26.88s-26.347 26.88-26.347 26.88l-43.797 68.907h-228.629c-43.819 0-78.848 35.648-78.848 79.445v240.533c0 43.819 35.52 79.317 79.339 79.317h46.379v0.128l299.541-0.128c43.819 0 79.317-35.499 79.317-79.317v-42.325z" />
<glyph unicode="&#xe91d;" glyph-name="consultdoctorbig2" d="M774.827 513.941v76.971h0.064l0.085 14.763c0 38.976-28.203 67.008-67.115 67.008h-16.256v-0.021l-299.115 0.021c-38.933 0-67.093-28.011-67.093-67.008l0.064-14.763h0.085v-174.251h-0.085l-0.064-15.979c0-38.955 24.213-70.955 63.147-70.955l315.371-0.128c38.912 0 71.061 32.128 71.061 71.083l-0.085 15.872h-0.064v97.387zM669.205 455.573c-12.715 0-24.299 6.912-30.379 17.856-1.365-1.088-2.219-2.432-2.581-4.053-2.048-9.429-1.301-20.949-0.576-32.064 0.576-9.195 1.152-17.856 0.256-25.515-2.795-24.107-22.827-61.909-66.453-67.285-2.752-0.341-5.483-0.491-8.107-0.491-37.781 0-52.267 34.155-56.939 49.856-5.163 4.757-6.080 12.523-6.123 12.864v25.579c-43.264 7.381-59.179 47.040-59.861 48.747-0.085 0.213-3.093 7.253-0.341 14.016-3.819 6.507-6.357 11.733-7.595 14.357-9.003 19.264-25.728 75.627-11.797 94.336 6.016 8.085 16.896 13.376 27.413 18.496 3.349 1.621 6.613 3.221 9.579 4.864 2.24 1.237 4.544 2.88 6.827 4.864 2.816 6.827 9.536 11.371 16.96 11.371 10.133 0 18.347-8.235 18.347-18.347 0-10.155-8.235-18.368-18.347-18.368-3.499 0-6.848 0.981-9.792 2.837-2.261-0.427-4.373-0.939-6.293-1.515-10.475-3.243-20.971-9.6-26.112-15.829-9.344-11.349 2.752-51.776 11.008-69.888 3.115-6.827 5.909-12.501 8.533-17.259 5.056-1.216 8-4.928 8.107-5.12 0.491-0.832 20.437-38.677 47.104-38.677 25.557 0.256 47.275 38.528 47.488 38.891 0.341 0.512 4.267 5.995 11.477 5.632 2.517 4.608 5.12 9.92 8.149 16.533 8.256 18.133 20.352 58.539 11.008 69.888-5.12 6.229-15.616 12.587-26.091 15.829-1.941 0.576-4.032 1.109-6.293 1.515-2.965-1.856-6.336-2.837-9.835-2.837-10.133 0-18.347 8.235-18.347 18.368 0 10.112 8.235 18.347 18.347 18.347 7.445 0 14.165-4.523 16.96-11.371 2.283-1.984 4.587-3.627 6.827-4.864 2.965-1.621 6.229-3.221 9.579-4.864 10.496-5.12 21.397-10.411 27.413-18.496 13.909-18.709-2.795-75.072-11.797-94.336-1.451-3.136-4.587-9.387-9.216-17.003 1.131-3.904 0.299-6.869 0.171-7.232-0.875-2.112-19.157-42.731-59.115-52.117v-26.005c-0.021-0.448-0.384-4.437-2.325-8.384 4.011-10.368 15.061-31.595 37.76-29.995 25.835 1.856 41.728 24.448 45.376 35.093 5.077 14.805 4.373 30.336 3.755 44.032-0.576 12.565-1.088 23.424 2.581 32.064 3.712 8.704 12.288 14.613 19.371 18.155 3.541 15.829 17.557 27.157 33.963 27.157 19.179 0 34.795-15.595 34.795-34.795-0.043-19.221-15.637-34.837-34.837-34.837zM512.043 951.189c-277.952 0-503.232-225.301-503.232-503.168 0-277.909 225.28-503.211 503.232-503.211 277.867 0 503.147 225.301 503.147 503.211 0 277.867-225.28 503.168-503.147 503.168zM523.221 231.168h-105.771l-59.499-68.48c0 0-24.64-26.688-31.552-26.688-6.933 0 0.192 26.688 0.192 26.688l16.427 68.48h-10.389c-62.485 0.043-111.061 68.8-111.061 111.125v195.925c0 35.925 24.043 66.176 56.917 75.691-3.947-9.387-6.123-19.712-6.123-30.571v-225.237c0-22.080 23.253-79.296 78.827-79.467h228.608l26.923-47.467h-83.499zM802.432 581.739v-198.336c0-43.84-35.029-79.317-78.805-79.317h-43.349l0.427-68.907c0 0 1.771-26.88-5.184-26.88s-26.347 26.88-26.347 26.88l-43.797 68.907h-228.629c-43.819 0-78.848 35.648-78.848 79.445v240.533c0 43.819 35.52 79.317 79.339 79.317h46.379v0.128l299.541-0.128c43.819 0 79.317-35.499 79.317-79.317v-42.325z" />
<glyph unicode="&#xe91e;" glyph-name="leftarrow3" d="M83.947 448l824.128-455.701v911.403l-824.128-455.701zM852.309 804.715l1.024-711.296-654.699 354.624 653.675 356.672z" />
<glyph unicode="&#xe91f;" glyph-name="rightarrow3" d="M104 911.403v-911.403l824.128 455.68-824.128 455.723zM813.44 455.744l-654.72-354.645 1.024 711.317 653.696-356.672z" />
<glyph unicode="&#xe920;" glyph-name="members3" d="M850.133 268.971c-71.125 35.456-43.755 8.32-131.115 44.629-87.317 36.203-108.096 48.085-108.096 48.085l-0.491 18.667c75.904 43.072 128.256 132.267 128.256 235.669 0 145.387-103.104 263.211-230.315 263.211-127.189 0-230.272-117.803-230.272-263.211 0-106.709 55.68-198.4 135.573-239.701l-0.469-15.552c0 0-20.757-12.629-108.181-48.789-87.339-36.224-59.904-7.531-131.072-42.987-112.512-55.957-112.512-209.792-112.512-209.792h0.021c0-0.128 0-0.128 0-0.128 0-23.381 18.901-42.283 42.24-42.283h816.768c23.253 0 42.176 18.923 42.176 42.283 0 0 0 0 0 0.128-0.043-0.021-0.043 153.813-112.512 209.771zM918.357 97.557c0-20.245-16.427-36.651-36.544-36.651h-739.541c-20.245 0-36.587 16.405-36.587 36.651 0 0 0 0 0 0.107h-0.043c0 0 0 96.235 97.515 144.747 61.675 30.699 53.781 5.824 129.472 37.205 75.733 31.36 109.611 42.304 109.611 42.304l0.427 87.957c-69.227 35.776-122.795 99.328-122.795 191.787 0 125.973 78.741 238.677 188.971 238.677 110.187 0 183.659-112.704 183.659-238.677 0-89.557-45.355-150.997-111.104-188.309l0.448-90.645c0 0 33.877-10.283 109.547-41.643 75.712-31.488 67.883-7.957 129.515-38.677 97.451-48.512 97.451-144.747 97.451-144.747 0-0.085 0-0.085 0-0.085z" />
<glyph unicode="&#xe921;" d="M504.512 811.456c0-48.413-39.246-87.659-87.659-87.659s-87.659 39.246-87.659 87.659c0 48.413 39.246 87.659 87.659 87.659s87.659-39.246 87.659-87.659z" />
<glyph unicode="&#xe922;" d="M142.123 141.205l112.235 115.456 56.128 133.099 132.032-87.147 13.867-147.499c0 0 8.555-16.021 39.552-17.131 32.085-1.088 40.597 18.176 40.597 18.176l-19.221 194.581-134.677 91.904 14.443 136.299 61.461-78.549h150.997c0 0 8.469 6.976 9.899 24.021 1.621 19.797-10.197 33.152-10.197 33.152l-127.701 0.533-68.437 134.677-68.928 28.864-202.048-51.307-22.464-202.048c0 0 5.888-9.067 22.464-11.755 21.739-3.52 32.064 9.344 32.064 9.344l20.032 149.931 66.56-3.2-39.296-148.309-23.787-155.285-102.613-112.256c0 0-12.843-20.309 6.4-37.419 21.099-18.688 40.64-18.133 40.64-18.133z" />
<glyph unicode="&#xe923;" d="M953.472 11.861l-2.112 473.536-77.355 84.992 46.357 56.128-51.328 59.883-177.429-248.021 56.619-20.288 81.579 98.773 55.275-53.909v-293.205l-1.067 2.453-813.483-113.323 2.133-61.995 812.416 117.525v-102.549z" />
<glyph unicode="&#xe924;" d="M160.043 101.632l264.299 41.92-7.189 32.747-266.219-39.552z" />
<glyph unicode="&#xe925;" d="M568.384 165.781l264.256 41.899-7.147 32.768-266.24-39.595z" />
<glyph unicode="&#xe926;" glyph-name="members2" d="M521.515 464.491c12.288 7.019 11.627 19.819 8.171 26.709l-0.96 1.451c-22.549 27.563-34.987 62.357-34.987 98.027 0 85.376 69.483 154.816 154.859 154.816 85.355 0 154.816-69.44 154.816-154.816 0-35.669-12.416-70.464-34.987-98.027l-0.832-1.259c-3.584-6.635-4.779-19.2 6.72-26.688 5.184-3.349 10.219-5.056 14.976-5.056 6.101 0 11.456 2.709 15.531 7.808 27.968 35.413 42.752 78.016 42.752 123.2 0 109.717-89.28 198.976-198.976 198.976-109.76 0-198.997-89.28-198.997-198.976 0-45.504 14.955-88.32 43.264-123.861 6.571-8.213 19.52-8.853 28.651-2.304zM648.597 461.525c-180.544 0-327.275-175.659-331.456-355.179h49.387c4.16 152.235 128.789 305.792 282.069 305.792 153.237 0 277.867-153.557 282.048-305.792h49.365c-4.181 179.499-150.891 355.179-331.413 355.179zM295.445 477.952c12.288 6.592 11.627 18.539 8.171 25.003l-0.939 1.344c-22.571 25.813-34.987 50.56-34.987 83.968 0 79.957 53.76 137.152 139.115 137.152 8.021 0 15.851-0.747 23.552-1.856 0 0 10.219 7.253 11.115 18.261 1.323 15.915-11.115 23.573-11.115 23.573-7.701 0.853-15.552 1.344-23.552 1.344-109.739 0-183.296-75.755-183.296-178.496 0-42.603 14.955-74.88 43.264-108.117 6.592-7.701 19.52-8.32 28.672-2.176zM391.125 417.429c0 0 11.435 1.365 10.453 27.883-0.533 14.741-10.453 21.611-10.453 21.611-5.205 0.299-10.453 0.469-15.701 0.469-180.523 0-327.253-167.808-331.435-347.328h49.365c4.181 152.235 128.811 297.941 282.069 297.941 5.269 0 10.496-0.213 15.701-0.576z" />
<glyph unicode="&#xe927;" glyph-name="research2" d="M453.888 315.115c43.563-8.981 86.613 2.56 119.147 27.904l72.768-79.979 18.752 17.045-72.939 80.171c16.917 18.731 29.205 42.027 34.667 68.544 16.235 78.955-34.667 156.139-113.643 172.352-78.976 16.235-156.181-34.667-172.395-113.643-16.213-79.019 34.688-156.203 113.643-172.395zM361.579 483.115c13.781 67.2 79.467 110.528 146.688 96.725 67.2-13.803 110.549-79.531 96.725-146.709-13.803-67.243-79.488-110.528-146.731-96.725-67.2 13.781-110.507 79.467-96.683 146.709zM109.781 850.219v-804.459h804.459v804.459h-804.459zM849.003 483.989v-372.992h-673.984v674.005h673.984v-301.013z" />
<glyph unicode="&#xe928;" glyph-name="heartrealpurity" d="M304.96 666.261c-39.189-103.147-18.581-189.781-18.581-189.781s2.709-33.365 49.515-34.539c43.499-1.088 44.992 33.387 44.992 33.387s-1.771 24.96 5.013 91.264c8.128 79.275 60.437 133.504 104.683 136.789 59.285 4.395 87.915-50.539 87.915-50.539s14.677-1.557 39.467 11.584c23.893 12.715 28.352 30.165 28.352 30.165l-40.235 47.957 84.032 137.173c0 0-6.187 20.117-57.216 1.536-31.061-11.285-55.701-12.373-55.701-12.373l-41.792-75.285-9.259 2.581-0.512 119.104c0 0-12.885 18.411-47.957 17.536-42.261-1.003-47.915-16.981-47.915-16.981l0.235-122.475c0 0-96.128-51.051-125.035-127.104zM876.309 634.304c0 0-91.627 37.483-180.224 29.355-118.336-10.816-160.128-51.819-160.128-51.819l-36.352 42.56c0 0-8.811-0.811-11.392-2.091-3.115-1.579-8.96-11.819-8.96-11.819l33.877-44.587c0 0 10.56-13.781 17.152-13.696 6.016 0.085 3.392-0.917 17.152 8.043 21.632 14.059 65.749 34.112 149.397 44.053 95.467 11.307 162.432-24 162.432-24s11.627-3.093 17.024 7.744c3.435 6.848 0.021 16.256 0.021 16.256zM861.632 569.323c0 0-110.72 27.883-201.131 10.027-58.773-11.584-115.776-49.237-115.776-49.237l-13.931-128.427 39.189-33.003-12.885-75.264c0 0-40.043-48.576-72.704-72.704-35.584-26.304-69.184-20.245-52.587-51.072 10.816-20.117 54.080 6.443 80.448 27.861 24.747 20.096 41.749 46.891 41.749 46.891l-4.651-20.608-58.752-121.195c0 0-3.819-7.104 6.187-11.861 10.816-5.163 16 1.024 16 1.024l55.68 103.659 1.536-10.325-5.675-51.051c0 0-1.024-10.816 12.395-11.328 12.544-0.491 9.493 10.304 9.493 10.304l4.907 45.355-4.629 86.165c0 0 10.859 10.304 10.859 33.515 0 50.048 2.837 53.611 2.837 53.611l20.885-11.307c0 0 12.395-1.557 17.792 5.397 7.104 9.173 0 16.256 0 16.256l-77.099 64.469 10.837 75.797c0 0 15.979 36.117 125.824 52.331 94.357 13.931 160.085-8.491 160.085-8.491s10.091-0.789 10.859 9.28c0.96 12.544-7.744 13.931-7.744 13.931zM370.965 424.917c0 0-9.344 0.576-8.277-18.56 0.896-15.744 8.277-12.352 8.277-12.352s56.555-1.216 72.896 14.464c34.347 32.96-5.867 172.715-5.867 172.715s-13.717-2.304-17.024-13.909c-6.187-21.653-6.187-29.397-6.187-29.397s22.080-81.728 0.192-105.451c-10.667-11.584-44.011-7.509-44.011-7.509zM716.971 521.344c-29.397-12.395-18.56-24.747-18.56-24.747s21.653-32.491 7.723-68.053c-22.805-58.368-34.027-80.491-34.027-80.491s23.189-86.805 10.816-150.037-60.331-102.869-80.448-123.755c-23.253-24.149-41.579-38.613-55.659-47.147-28.949-17.515-40.256-10.112-40.256-10.112s-14.357 7.147-35.413 18.624c-31.061 16.96-76.587 43.392-112.064 70.592-92.821 71.168-134.827 159.083-139.477 169.899-6.955 16.256-6.187 44.096-6.187 44.096v40.235c4.011 8.597 1.408 9.856 15.211 29.397 12.373 17.515 21.141 23.189 13.397 41.003-6.955 16.043-27.072 1.536-27.072 1.536l-13.909-5.419c0 0-17.344 2.795 2.304 60.331 14.955 43.84 38.677 67.563 38.677 67.563l-6.187 50.027c0 0-58.539-56.725-74.24-102.101-16.043-46.379-17.515-81.856-13.611-111.36 2.859-21.696 22.123-35.605 22.123-35.605s-18.261-53.909 0.768-95.936c14.955-32.981 47.957-88.171 79.936-122.709 64.405-69.589 162.517-127.744 219.115-158.016 26.901-14.379 29.184-12.928 47.744-15.253 17.664-2.219 18.731-0.853 49.301 16.597 46.208 26.347 111.829 77.995 150.016 171.093 33.365 81.365 6.165 185.643 6.165 185.643s27.883 35.584 38.677 94.379c8.149 44.224-18.56 88.149-18.56 88.149s-7.168 9.643-26.304 1.579zM325.76 782.144l-85.675 8.832-7.019-29.12 87.36-3.797zM277.291 714.069l-85.653 8.853-7.061-29.141 87.381-3.819z" />
</font>
</defs>
</svg>
